<svg width="20" height="16" viewBox="0 0 20 16" fill="none" xmlns="http://www.w3.org/2000/svg">
<path d="M19.5782 4.14997C19.2372 4.10798 16.3602 4.01197 13.3512 4.06397C13.2572 3.40697 12.9892 2.36197 12.8542 1.85397C12.799 1.64776 12.7127 1.45117 12.5982 1.27097C12.5301 1.16124 12.4549 1.05602 12.3732 0.955975C11.4802 -0.0600255 9.27023 -0.505025 8.07823 0.837975C8.07823 0.837975 7.77423 1.16397 7.65323 1.31797C7.65323 1.32097 7.65723 1.32097 7.65523 1.32497C7.08523 2.22597 6.74823 3.14597 6.71023 4.15797C3.62723 4.16797 0.860226 4.31197 0.620226 4.33097C-0.0847737 4.38897 -0.0267737 4.91797 0.0332263 5.21397C0.0922263 5.50698 0.269226 6.21497 0.327226 6.39197C0.327226 6.39197 1.53023 10.697 2.21323 12.5C2.86123 14.207 2.94223 15.26 4.25123 15.496C5.64423 15.746 6.61823 15.623 7.62423 15.669C8.75423 15.721 10.3042 15.669 12.1882 15.669C14.0722 15.669 14.7362 15.596 16.1682 15.469C17.5862 15.344 18.4282 11.582 18.9582 10.049C19.4882 8.51897 19.9982 5.42197 19.9982 5.06797C19.9982 4.71397 20.0472 4.20597 19.5762 4.14797L19.5782 4.14997ZM10.0602 0.999975C11.3942 0.999975 11.6772 1.74997 11.8302 2.20697C11.9942 2.70097 12.0232 3.49697 12.0982 4.03097C11.5712 4.04098 10.7472 4.04997 10.3952 4.06097C9.91423 4.07297 8.88423 4.07897 8.05923 4.08497C7.82423 2.88797 8.78623 1.00197 10.0592 1.00197L10.0602 0.999975ZM17.3602 11.374C16.8802 12.561 16.7432 14.028 15.6662 14.407C14.6442 14.767 12.7432 14.751 11.4632 14.699C10.1812 14.647 8.86123 14.789 7.18923 14.676C5.53623 14.566 4.82823 14.53 4.40123 14.272C3.97423 14.014 3.80623 13.322 3.56423 12.767C3.15423 11.824 2.90223 11.039 2.63623 10.206C2.31623 9.27798 2.12623 8.90097 1.73023 7.41997C1.55123 6.74997 1.23923 5.82997 1.45123 5.62397C1.66623 5.41797 4.79323 5.39897 6.07323 5.39897C7.35323 5.39897 11.9002 5.33897 13.7162 5.28697C15.5322 5.23497 18.2732 5.16698 18.5932 5.35297C18.9932 5.58597 17.8432 10.185 17.3632 11.372L17.3602 11.374Z" fill="black"/>
</svg>
