<svg width="15" height="13" viewBox="0 0 15 13" fill="none" xmlns="http://www.w3.org/2000/svg">
<path d="M10.0828 0.150889C9.72761 0.242509 9.38764 0.383663 9.07326 0.570041C8.77438 0.769513 8.50565 1.0094 8.27503 1.2826C8.01516 1.56244 7.78157 1.86476 7.5771 2.18587C7.53442 2.25294 7.496 2.32 7.45972 2.39545C7.37861 2.28647 7.29964 2.1733 7.22494 2.06013C7.11928 1.90385 7.00305 1.75472 6.87705 1.61373C6.75616 1.46912 6.62261 1.33518 6.47793 1.21344C6.04251 0.874695 5.5547 0.606542 5.033 0.419146C4.79041 0.341112 4.53865 0.293922 4.28385 0.27873C4.06649 0.252993 3.84736 0.244582 3.62861 0.253581C3.35055 0.270958 3.07474 0.313757 2.80477 0.381423C2.54424 0.451014 2.29337 0.55166 2.05775 0.681116C1.81188 0.818284 1.58397 0.984376 1.37904 1.17572C1.19566 1.3398 1.02646 1.51855 0.873206 1.71013C0.703299 1.91638 0.553924 2.13815 0.427133 2.37239C0.311717 2.60092 0.218118 2.83946 0.147537 3.08495C0.117656 3.18974 0.0899102 3.29453 0.0664327 3.39932C0.0340709 3.55212 0.0119686 3.70684 0.000268794 3.86248C-0.0152915 4.09898 -0.0052754 4.33642 0.0301493 4.57085C0.0863219 5.04386 0.193643 5.50965 0.350297 5.96034C0.442856 6.21625 0.553395 6.46555 0.681117 6.70643C0.792102 6.916 0.918026 7.113 1.03541 7.31839C1.1528 7.52377 1.28086 7.75431 1.41319 7.96388C1.5798 8.21108 1.77615 8.43766 1.99799 8.63872C2.17514 8.80847 2.34375 8.98661 2.51877 9.15847C2.70469 9.33188 2.9022 9.49291 3.10997 9.64049C3.2423 9.7369 3.37676 9.82911 3.51123 9.92342C3.98504 10.2755 4.45033 10.6402 4.93695 10.9713C5.17386 11.1348 5.41504 11.2961 5.65835 11.4512C5.90166 11.6063 6.12577 11.7446 6.35201 11.9039C6.57824 12.0632 6.7682 12.2036 6.9923 12.344C7.2164 12.4844 7.41916 12.6269 7.6326 12.7632C7.69876 12.8009 7.76279 12.8365 7.82469 12.8784C7.94392 12.9483 8.07872 12.9886 8.2174 12.9958C8.33151 12.9937 8.4426 12.9595 8.53755 12.8973C8.59421 12.858 8.64838 12.8153 8.69976 12.7695L8.77019 12.7087C8.81433 12.6656 8.85045 12.6152 8.87691 12.5599C9.5172 11.8955 10.1575 11.227 10.7636 10.5312C11.4189 9.77881 12.0741 9.02015 12.7443 8.27825C13.0644 7.92197 13.3611 7.54263 13.6492 7.16121C13.8315 6.92191 13.9956 6.66973 14.1401 6.40673C14.2679 6.16431 14.3806 5.91445 14.4774 5.65855C14.6481 5.21215 14.7719 4.74899 14.9042 4.29211C15.028 3.77663 15.028 3.23996 14.9042 2.72448C14.8635 2.48704 14.8043 2.25302 14.7271 2.0245C14.6824 1.89708 14.6282 1.77309 14.5649 1.65355C14.489 1.52508 14.4004 1.40433 14.3002 1.29308C13.9463 0.913035 13.5161 0.609057 13.0367 0.400284C12.8076 0.287534 12.5691 0.194281 12.3238 0.121548C12.0722 0.0507687 11.8128 0.00995781 11.5512 -5.82809e-06H11.2823C10.8774 -0.0028888 10.4739 0.0478669 10.0828 0.150889ZM11.7625 1.02901C11.9233 1.05471 12.0813 1.09541 12.2342 1.15057C12.5537 1.27943 12.8602 1.43729 13.1498 1.62211C13.2943 1.72949 13.4279 1.8502 13.5489 1.98258C13.6123 2.06744 13.6687 2.15714 13.7175 2.25084C13.8246 2.53322 13.9033 2.82523 13.9523 3.12268C13.9827 3.34981 13.992 3.5792 13.9801 3.80799C13.923 4.0776 13.8518 4.34412 13.7666 4.60647C13.6962 4.85587 13.6151 5.10317 13.5233 5.34628C13.4465 5.52861 13.3632 5.71094 13.2779 5.89118C13.1826 6.08627 13.0712 6.27341 12.9449 6.45074C12.676 6.80493 12.4049 7.16121 12.1104 7.49862C11.7746 7.88285 11.4374 8.26707 11.0987 8.65129C10.4392 9.40157 9.79893 10.1623 9.10101 10.877C8.90892 11.074 8.71683 11.2689 8.51834 11.4596C8.40309 11.5728 8.28997 11.6901 8.17258 11.8012C8.09574 11.7572 8.01677 11.7153 7.94207 11.6671C7.69236 11.5057 7.44264 11.3443 7.19933 11.1746C6.89626 10.965 6.59318 10.7554 6.2773 10.5459C5.96142 10.3363 5.68183 10.1498 5.38729 9.94647C5.13117 9.75995 4.87719 9.56714 4.62534 9.37433C4.37349 9.18152 4.11524 8.99709 3.85699 8.81476C3.7396 8.72883 3.62648 8.64081 3.51763 8.5465C3.40878 8.45219 3.27005 8.31597 3.15053 8.19861C2.92642 7.96388 2.68524 7.75431 2.46968 7.51958C2.29195 7.26089 2.1274 6.99371 1.97665 6.719C1.81444 6.44655 1.65223 6.1762 1.51777 5.8807C1.35147 5.4634 1.23404 5.02888 1.16774 4.58552C1.13184 4.32296 1.12468 4.05738 1.1464 3.79332C1.18657 3.5534 1.25165 3.31815 1.34062 3.09124C1.4373 2.87575 1.55525 2.67008 1.69278 2.47718C1.88177 2.23482 2.09641 2.01283 2.33308 1.81492C2.49209 1.70612 2.6615 1.61277 2.83891 1.53619C3.04613 1.45998 3.26065 1.40451 3.47921 1.37062C3.77513 1.34135 4.0733 1.34135 4.36922 1.37062C4.5144 1.39099 4.65731 1.42467 4.79609 1.47122C5.10581 1.59532 5.40129 1.75127 5.67756 1.93648C5.86514 2.08519 6.03678 2.25232 6.1898 2.43527C6.2645 2.53377 6.33066 2.64484 6.40323 2.74125C6.4758 2.83765 6.58251 2.97597 6.66788 3.09334L6.86211 3.35321C6.91414 3.42621 6.97044 3.49619 7.03072 3.56279C7.09531 3.62618 7.17431 3.67358 7.26123 3.70111C7.29809 3.71717 7.33586 3.73116 7.37434 3.74302C7.47461 3.78765 7.58649 3.80072 7.69462 3.78046C7.80276 3.7602 7.90187 3.70759 7.97836 3.62985C8.04196 3.56736 8.08768 3.48952 8.11091 3.40416C8.13414 3.31881 8.13406 3.22895 8.11068 3.14363L8.17898 2.93406C8.2624 2.75696 8.36244 2.58787 8.47779 2.42898C8.60798 2.26551 8.74885 2.11252 8.89185 1.96163C9.02627 1.8177 9.16878 1.68126 9.31871 1.55295C9.47618 1.44408 9.64334 1.34939 9.81814 1.27002C10.0938 1.16574 10.38 1.09056 10.6719 1.04578C11.0303 1.0036 11.3922 0.997981 11.7518 1.02901H11.7625Z" fill="black"/>
</svg>
