<svg width="10" height="10" viewBox="0 0 10 10" fill="none" xmlns="http://www.w3.org/2000/svg">
<g clip-path="url(#clip0_47_2922)">
<path fill-rule="evenodd" clip-rule="evenodd" d="M3.64293 5.86499C3.73293 5.87349 3.81293 5.88099 3.87243 5.88349C4.01043 5.88899 4.03593 6.01849 4.06293 6.15499L4.06893 6.18499C4.14143 6.57349 4.18393 6.97199 4.19393 7.36699C4.19893 7.54049 4.16743 7.64349 3.99393 7.64999C3.54215 7.66719 3.08976 7.65884 2.63893 7.62499C2.58831 7.62285 2.53868 7.61034 2.49309 7.58824C2.44751 7.56614 2.40695 7.53491 2.37393 7.49649C2.32276 7.43493 2.29293 7.35844 2.28893 7.27849V7.27749C2.28337 7.2231 2.27604 7.1689 2.26693 7.11499L2.26443 7.09799C2.20343 6.70449 2.12743 6.21449 2.44593 5.98299C2.71143 5.78999 3.14493 5.81549 3.64293 5.86499ZM2.81793 7.12499L2.81843 7.12899C3.12176 7.14632 3.42493 7.15349 3.72793 7.15049C3.71143 6.93849 3.68793 6.65049 3.65693 6.44049L3.65293 6.43949L3.64693 6.43899C3.44893 6.41899 2.94793 6.36899 2.76743 6.42549C2.74243 6.56499 2.79343 6.97049 2.81743 7.12049L2.81793 7.12499Z" fill="black"/>
<path fill-rule="evenodd" clip-rule="evenodd" d="M9.9895 3.0165C9.9895 3.0165 10.013 4.249 9.9895 4.68C9.9868 4.71303 9.98246 4.74591 9.9765 4.7785L9.9695 4.822C9.947 4.9925 9.8825 5.04 9.7115 5.04C9.63485 5.0381 9.55818 5.03694 9.4815 5.0365C9.40466 5.03621 9.32782 5.03521 9.251 5.0335C9.205 5.7735 9.2235 6.5035 9.2795 7.149L9.281 7.165C9.3315 7.7765 9.384 8.409 9.353 9.181C9.34964 9.26098 9.3162 9.33674 9.25937 9.39311C9.20253 9.44948 9.1265 9.4823 9.0465 9.485C6.51733 9.56479 3.98687 9.59596 1.4565 9.5785C1.37427 9.57776 1.29553 9.54513 1.23687 9.48749C1.17821 9.42986 1.1442 9.35171 1.142 9.2695C1.1238 8.56927 1.10313 7.8691 1.08 7.169C1.06 6.55 1.04 5.929 1.02 5.163C0.795667 5.16934 0.5715 5.176 0.3475 5.183H0.3365C0.2533 5.18341 0.173321 5.15087 0.114022 5.09251C0.054724 5.03415 0.0209235 4.9547 0.02 4.8715C0.0175 4.674 0.015 4.3665 0.011 4.049L0.01 3.926L0 3.024V3.019C0 2.993 0.00333333 2.968 0.01 2.944C0.0103333 2.94134 0.0111667 2.9385 0.0125 2.9355L0.0135 2.932C0.0194169 2.91171 0.0274616 2.8921 0.0375 2.8735L0.041 2.8635C0.4827 2.10081 0.953889 1.35558 1.4535 0.629504C1.48254 0.58783 1.52109 0.553669 1.56596 0.529846C1.61082 0.506024 1.66071 0.493223 1.7115 0.492504L8.4125 0.416504H8.4165C8.42317 0.416504 8.43033 0.417171 8.438 0.418504L8.451 0.420504C8.51982 0.412522 8.58934 0.427447 8.64882 0.46297C8.70829 0.498492 8.7544 0.552631 8.78 0.617004C9.1215 1.4905 9.6 2.312 9.94 2.847L9.9445 2.8565L9.9485 2.8645C9.95483 2.87584 9.96067 2.8875 9.966 2.8995C9.969 2.90684 9.97133 2.91434 9.973 2.922L9.9745 2.927C9.97998 2.94461 9.98383 2.96269 9.986 2.981L9.987 2.993L9.9895 3.0165ZM2.2385 0.987004C2.0155 0.997004 1.8035 0.983504 1.8035 0.983504C1.568 1.331 1.334 1.7415 1.119 2.1195C1.01342 2.30799 0.90524 2.495 0.7945 2.6805H9.271C9.15261 2.47666 9.03594 2.27182 8.921 2.066C8.71039 1.68609 8.49319 1.30987 8.2695 0.937504C8.2695 0.937504 2.486 0.977004 2.2385 0.987004ZM0.52 3.562L0.523 3.942C0.5245 4.1655 0.527 4.3885 0.5295 4.5815C3.4915 4.484 6.4895 4.478 9.4525 4.559C9.4525 4.559 9.495 4.078 9.495 3.885C9.495 3.692 9.4525 3.166 9.4525 3.166C9.4525 3.166 7.061 3.121 6.4705 3.104C6.193 3.0965 3.6695 3.085 2.449 3.129C1.429 3.165 0.517 3.1675 0.517 3.1675L0.52 3.562ZM7.0085 6.2675C6.605 6.2525 6.1785 6.2355 5.8035 6.288L5.9215 9.024C6.1615 9.0205 6.4215 9.037 6.6825 9.0535C6.9515 9.0705 7.2205 9.0875 7.4675 9.0825V9.074C7.53265 8.14319 7.51626 7.20846 7.4185 6.2805C7.2865 6.27784 7.14983 6.2735 7.0085 6.2675ZM8.8275 7.2625L8.825 7.2285C8.77 6.557 8.714 5.8645 8.7625 5.0375C6.395 4.9825 3.9235 4.9865 1.5555 5.0485C1.5665 5.4695 1.5535 5.8485 1.541 6.208C1.5295 6.542 1.5185 6.858 1.5285 7.174L1.543 7.6625C1.556 8.104 1.5695 8.562 1.583 9.0815C2.816 9.0875 4.1455 9.0815 5.386 9.065L5.2735 6.3095V6.308C5.271 6.2485 5.2645 6.094 5.3785 5.963C5.4765 5.85 5.601 5.828 5.6515 5.819L5.6535 5.8185C6.29523 5.70679 6.94768 5.66921 7.598 5.7065C7.67541 5.71197 7.74842 5.74453 7.8042 5.79848C7.85998 5.85244 7.89496 5.92432 7.903 6.0015C8.01998 7.0004 8.04675 8.0078 7.983 9.0115L8.3645 9.0025C8.5515 8.9985 8.7435 8.994 8.906 8.989C8.9145 8.3535 8.8705 7.8 8.8275 7.2625Z" fill="black"/>
</g>
<defs>
<clipPath id="clip0_47_2922">
<rect width="10" height="10" fill="white"/>
</clipPath>
</defs>
</svg>
