<svg width="144" height="97" viewBox="0 0 144 97" fill="none" xmlns="http://www.w3.org/2000/svg">
<path fill-rule="evenodd" clip-rule="evenodd" d="M80.7182 28.5116V28.6645L80.1708 28.5881V28.4352C80.3793 28.6645 80.4836 28.4607 80.7182 28.5116ZM79.8841 28.7155C79.5392 28.6937 79.2145 28.5486 78.9719 28.3078L79.8841 28.7155ZM73.2119 29.0977L73.2641 28.3078L73.1598 29.1996L73.2119 29.0977ZM73.6289 28.2314H73.7071V27.9766H73.6289V28.2314ZM75.7922 28.0785L75.8443 27.5434L75.9225 27.6708L75.7922 28.0785ZM72.2215 27.3396L72.4561 26.8555L72.3779 27.1867L72.2215 27.3396ZM76.7044 26.3968V26.5242C76.7826 26.5242 76.9911 26.5752 76.9911 26.4733C76.8347 26.5242 76.8087 26.3968 76.7044 26.3968ZM66.7482 26.0401C66.67 26.244 66.2791 26.244 66.0445 26.3204C66.2269 26.142 66.5136 26.142 66.7482 26.0401ZM72.7167 25.6579L73.5508 25.9382C73.3162 25.7853 73.0816 25.4286 72.7167 25.6579ZM73.4986 24.5623C71.6742 25.9127 69.146 25.2248 67.1392 25.9892C67.8689 25.9127 68.5987 25.607 69.3024 25.7089C68.8072 26.0911 67.9211 25.7599 67.4259 26.2694L69.5891 25.8618C69.6152 25.5305 70.5013 25.6834 70.8402 25.6579L70.788 25.7089C71.8045 25.556 72.8992 25.5305 73.7071 24.919H73.4986C73.2901 24.7916 73.6029 24.5878 73.4986 24.5623ZM67.4519 25.607C68.8854 25.3012 70.5274 25.3777 71.987 24.9955C70.5535 24.4094 68.4163 24.1547 67.4519 25.607ZM78.9198 24.3585C78.7895 24.4094 78.6331 24.5878 78.4246 24.5878C78.581 24.4604 78.7374 24.384 78.9198 24.3585ZM63.6988 24.4349L63.8552 24.1547V24.2821L63.6988 24.4349ZM63.4382 24.4349L63.6467 23.8999H63.8552L63.4382 24.4349ZM62.6563 24.3075C62.4999 24.0018 62.943 24.0782 62.943 23.8234C63.0212 23.8999 62.8126 24.1547 62.6563 24.3075ZM78.0336 23.7725H77.8773V23.5686C77.9294 23.6196 78.0597 23.6451 78.0336 23.7725ZM73.0034 23.7725C72.4822 22.2437 71.8566 24.5623 70.9705 24.3075L72.2215 24.9445C72.7167 24.7152 73.1859 24.384 73.5508 23.9763C73.4204 24.0273 73.1859 23.8489 73.0034 23.7725ZM63.4121 22.8807H63.2557L62.7605 23.5686L63.4121 22.8807ZM64.6632 22.8042H64.585L64.6632 23.0081V22.8042ZM70.371 21.7341C69.8758 21.9889 68.8854 22.1927 69.3806 23.0081C69.146 23.4412 69.0939 24.0018 68.8854 24.3075C69.7194 24.0273 70.2668 24.333 71.1269 24.0273C71.4396 23.5686 72.5603 23.3393 72.2215 22.6769C72.1955 22.6259 72.1173 22.6004 72.0651 22.6259C72.0391 22.6259 72.013 22.6514 72.013 22.6769C71.7002 21.938 70.8402 22.1673 70.371 21.7341ZM69.6152 21.7851C69.8237 21.7086 70.0843 21.7086 70.1625 21.5303C69.8758 21.1736 69.7194 21.5303 69.6152 21.7851ZM79.4932 21.5303L79.1544 21.25L79.2847 21.301L79.4932 21.5303ZM78.8416 21.6322L78.2943 21.2245L78.7895 21.5812L78.8416 21.6322ZM78.2943 21.0971C78.0597 21.4029 78.7374 21.6067 78.6331 21.8615C78.3985 21.7851 78.2682 21.4793 78.0336 21.3774C78.2421 21.5812 78.3985 21.836 78.4246 22.1163L78.0858 21.8615L78.4246 22.2692L78.2943 22.3966L78.1379 22.2692C78.1379 22.3966 78.4246 22.4985 78.2161 22.6004L77.5124 21.9634C77.3821 22.0144 77.8251 22.2182 77.5645 22.3966L76.965 21.7851C76.9129 21.7851 77.3039 22.0908 77.1736 22.2692L76.965 22.0653L77.1736 22.6004C77.0172 22.5749 76.939 22.3966 76.8347 22.3201L76.7565 22.6004L76.548 22.4475L76.6262 22.524C76.6262 22.5749 76.6262 22.7023 76.548 22.7278C76.2613 22.3966 75.9486 22.0908 75.5837 21.836L75.6358 21.887C75.714 22.0908 76.0528 22.2947 75.9225 22.524L75.4794 22.0399V22.3711L75.1406 22.0399C75.1406 22.2182 75.4794 22.3456 75.297 22.524L74.88 22.0908L75.1406 22.7023L74.7236 22.3711L74.6454 22.4221C74.6975 22.5495 74.8539 22.6259 74.88 22.7788C74.6454 23.0336 74.7497 22.6004 74.5412 22.6259L74.463 22.9826L73.9156 22.2947C73.8896 22.4221 73.9678 22.6004 73.8635 22.7278L73.5768 22.4475L73.5247 22.524L73.2901 22.2947L73.238 22.3711L72.9513 22.0908C72.9513 22.1673 72.9774 22.2692 72.8992 22.2947C72.8353 22.1815 72.8018 22.0544 72.8018 21.9252C72.8018 21.796 72.8353 21.6689 72.8992 21.5558C72.7689 21.938 72.5082 22.4475 72.847 22.8552C72.847 22.6769 72.7949 22.4985 72.8992 22.3711C73.1337 22.524 73.0034 22.9062 73.238 23.11C73.2641 23.0336 73.1859 22.8807 73.2901 22.8552L73.5768 23.3138L73.6289 23.11L74.4108 23.5432V23.2629C74.5933 23.2629 74.7497 23.5431 74.8279 23.4667L74.7757 23.4158C74.5933 23.2374 74.6975 23.1355 74.7757 22.9316C75.297 23.3138 75.8965 23.5432 76.522 23.6705L76.4438 23.8999L77.2778 24.0018L76.7826 23.6705C77.0954 23.5941 77.3299 23.5432 77.4863 23.8234C77.9294 23.8999 78.5028 24.0273 78.8155 23.6196C78.5288 23.5177 78.2421 23.8489 78.0597 23.5686C77.9815 23.161 78.3464 23.5177 78.4507 23.3393C78.3464 22.9062 78.9198 23.0336 78.998 23.0081L78.9459 22.9571C79.0762 22.8297 79.2847 22.6769 79.4932 22.8297C79.7799 22.473 80.3533 22.2437 80.1187 21.6577C79.8841 21.6832 79.9102 21.2755 79.6756 21.5303C79.4411 21.0971 78.8937 21.3264 78.8416 21.199L78.9198 21.25C78.7895 21.5812 78.5549 21.0717 78.2943 21.0971ZM71.3354 20.8933H71.205L70.9965 21.301L71.3354 20.8933ZM72.1173 20.8423C71.9348 21.1481 71.8566 21.5048 71.8827 21.8615C72.013 22.1163 72.1955 22.3201 72.4561 22.4475V21.4284C72.2476 21.7086 72.5603 21.938 72.3779 22.1927C72.1694 22.1163 72.1433 21.7851 72.1694 21.5812C72.1433 21.7086 72.2215 21.887 72.1173 21.9634C71.6742 21.6577 72.3258 21.199 72.1173 20.8423ZM64.4807 20.5621L64.3243 20.6895L64.2461 20.4856C64.3243 20.4856 64.4025 20.4601 64.4807 20.5621ZM80.7182 20.3582C80.64 20.4347 80.5097 20.4347 80.4575 20.5621C80.249 20.4856 80.7964 20.4856 80.5097 20.2818L80.223 20.4347L80.666 20.027L80.5097 20.2818L80.7182 20.3582ZM69.537 20.027V19.8741H69.6934L69.537 20.027ZM76.0007 20.613L76.0528 19.7212V20.5366L76.0007 20.613ZM72.821 20.2054C72.5864 20.0525 72.6385 19.7212 72.7428 19.5174L72.821 20.2054ZM67.0089 19.4664C67.087 20.0525 67.5562 19.9251 67.9993 20.2054V20.0525C67.7647 19.6703 67.2174 19.6193 67.0089 19.4664ZM72.4822 20.027C72.5082 19.9506 72.3258 19.39 72.5864 19.2117L72.4822 20.027ZM71.7784 19.0588C71.7263 19.0588 71.6481 19.0843 71.6481 19.1352L71.7784 18.9059V19.0588ZM75.6098 18.5237L75.1667 18.3199L75.4534 18.3708L75.6098 18.5237ZM78.3725 17.5045C77.6948 18.0651 76.8087 17.9122 76.0528 17.8358C75.7401 17.8867 75.8443 18.2434 75.714 18.4728C75.4534 18.2689 75.0624 17.9632 74.7497 18.1925C74.8018 18.1925 74.9321 18.167 74.9582 18.2434C74.9842 18.3199 74.9842 18.4218 74.906 18.4728C74.7757 18.3199 74.5151 18.4218 74.463 18.1925C74.1241 18.167 73.9156 18.5492 73.4986 18.3963C72.9513 18.6002 72.7949 18.804 72.7949 19.2881L73.2119 19.0333C72.9774 19.1607 73.1077 19.441 73.0555 19.6958L73.3422 19.2117C73.3683 19.2371 73.4204 19.2626 73.3944 19.3391C73.1598 19.5174 73.238 19.9251 73.3422 20.078L73.5508 19.6703C73.6289 19.6703 73.7853 19.6193 73.8374 19.7212L74.0981 19.2371C74.2805 19.5684 73.7853 19.8741 74.046 20.2563L74.3066 19.5684C74.5412 19.7722 74.2284 19.8996 74.3066 20.1289C74.5151 20.3837 74.6454 20.8933 74.88 20.8678C74.6454 20.664 74.5412 20.3582 74.5933 20.0525C74.8018 20.2308 74.8279 20.5875 75.0885 20.8169C75.1406 20.8169 75.2709 20.8169 75.297 20.7404C75.4273 20.2818 75.3231 19.7467 75.4534 19.4664C75.5837 19.7722 75.714 20.078 75.7922 20.4092C75.8704 19.9506 75.7401 19.4919 75.4534 19.1352C75.7661 19.1097 75.7401 19.441 75.9486 19.5938C76.131 20.1289 75.9486 20.6895 75.5055 21.0462C75.6619 21.0971 75.8183 21.1481 76.0007 21.1736L76.4959 20.078C76.5741 20.2054 76.939 19.7722 76.8869 20.027L77.0954 19.7467C77.3299 20.1289 77.1996 19.6958 77.4342 19.8232C77.4342 20.1799 77.2778 20.5111 77.0172 20.7659C77.3039 20.4601 77.5384 20.1034 77.6688 19.6958C78.0076 20.1034 77.2257 20.613 77.3299 20.8678C77.5906 20.5366 77.8251 20.2054 78.0336 19.8486L78.0858 19.8996C78.1379 20.1544 77.9555 20.3327 77.8773 20.5366C78.1379 20.2563 78.3203 19.9251 78.4246 19.5684C78.7113 20.027 78.19 20.3073 78.0858 20.6385C78.607 20.5621 78.4507 19.7977 78.8416 19.6193V18.9314C78.2943 18.5492 77.773 19.441 77.2517 19.0588C76.7826 19.0588 76.548 19.4664 76.548 19.8741C76.4698 19.8232 76.4698 19.6958 76.4177 19.5938C76.2353 19.3391 75.8183 18.9059 75.8704 18.7275C75.8965 18.5747 75.6097 18.4982 75.8183 18.3963L75.8704 18.4728L76.0789 18.2434L76.1571 18.6766C76.1571 18.5492 76.105 18.3708 76.2092 18.2434C76.5741 18.2689 76.0789 18.4728 76.3656 18.5747L76.4959 18.2434C76.8087 18.2944 76.4438 18.7021 76.548 18.6766C76.6523 18.6511 76.6784 18.4982 76.7565 18.5492L76.8347 18.9314L76.9911 18.4728L77.1214 18.6766L77.2517 18.2434C77.5906 18.218 77.5906 18.5747 77.9555 18.5237C78.0597 18.5747 77.9815 18.3963 78.1118 18.3708L78.2422 18.5237C78.4767 18.6256 78.0597 18.3199 78.3725 18.2434C78.4246 18.2944 78.4507 18.4218 78.581 18.3708V18.167C78.6592 18.0906 78.7374 18.0396 78.8416 18.0141L79.0762 18.4982C79.0762 18.3454 79.0241 18.116 79.1283 18.0141L79.2586 18.218V18.0906C79.0762 17.7084 78.8677 17.5045 78.3725 17.5045ZM71.987 17.5045L71.8306 17.9122C72.1955 17.7848 71.9869 18.6256 72.0391 18.6766L72.2476 18.2434L72.3258 18.3199C72.3518 18.4473 72.3258 18.6002 72.2476 18.7275C72.43 18.6766 72.5864 18.8549 72.821 18.5747C72.7688 18.1415 72.1694 17.9122 71.987 17.5045ZM64.4807 17.1223C64.5068 17.3771 64.9238 17.3771 64.6892 17.6574C65.0802 17.9632 65.028 18.6511 65.5754 18.6766C65.5754 18.4728 65.1844 18.3963 65.3669 18.1925L65.9142 18.6002L65.7057 18.8295L66.4094 19.2371C66.3833 19.3136 66.2791 19.2881 66.2009 19.2881H66.5397L66.4094 18.8804C66.67 18.7021 66.644 18.6256 66.9567 18.753C66.8785 18.0906 66.253 17.9886 65.7578 17.6829L66.0966 18.0141C65.7578 17.9122 65.1323 17.7593 65.002 17.3517L65.0541 17.2497C64.8717 17.4281 64.6371 17.1988 64.4807 17.1223ZM71.6221 16.893C70.9705 17.4026 71.0747 18.4728 71.2832 19.0843H71.3354C71.4136 19.0078 71.5439 18.9569 71.5439 18.8295C71.4917 18.8295 71.3875 18.804 71.3354 18.8804L71.205 18.753C71.179 18.167 71.2311 17.4791 71.7003 17.1988L71.5439 17.7339L71.8827 17.4026C71.8045 17.2243 71.8045 16.893 71.6221 16.893ZM70.2928 17.3771C70.1886 17.3262 70.1104 17.4536 70.0322 17.4536L70.2928 17.5045C70.2407 17.7084 69.9801 17.7084 69.7976 17.7848L70.1365 17.8358L69.7194 18.116L69.9279 18.167L69.7716 18.3199C69.8498 18.3199 69.954 18.2944 70.0061 18.3708C69.8237 18.4982 70.0322 18.9569 69.6673 19.1862C69.7455 19.0588 69.9279 18.9059 70.0843 19.0333L70.0322 19.1097C70.0843 19.1097 70.2146 19.1097 70.2407 19.0333L70.371 19.1862L70.1365 19.3136L70.2146 19.3645L70.0061 19.6448C70.0583 19.6448 70.1886 19.6193 70.2146 19.6958C70.0061 19.8486 69.8758 20.078 69.8758 20.3327L70.2928 19.7977C70.5274 19.976 70.1365 20.0525 70.2407 20.2563H70.2928C70.371 20.3582 70.2146 20.5366 70.1365 20.6895L70.5795 20.4092L70.4492 20.8933L70.7359 20.5111C70.762 20.5366 70.8141 20.5621 70.788 20.613C70.9705 20.6895 71.179 20.6385 71.3354 20.5111C71.3354 20.2818 71.1269 20.6385 71.1269 20.3582C71.179 20.3073 71.2572 20.1799 71.3354 20.2308L71.0747 20.1799L71.205 19.9506L70.9444 19.7467C70.9705 19.6703 71.1008 19.6958 71.1529 19.6958V19.2117C70.9965 19.1862 70.8402 19.2626 70.7359 19.1607C70.762 19.0843 70.6838 18.804 70.9444 18.8804C70.8662 18.8549 70.7098 18.9314 70.6577 18.8295L70.9444 18.6002C70.8662 18.6256 70.8402 18.5747 70.8141 18.5492L70.9444 18.3963C70.8662 18.3963 70.762 18.4218 70.7359 18.3454L70.9965 18.0651L70.8662 17.9377C70.9184 17.8612 70.9184 17.7339 70.9965 17.6829L70.788 17.5555C70.788 17.3007 70.6577 17.0204 70.9965 16.8676C70.5795 16.7911 70.2407 16.9185 70.2928 17.3771ZM74.5672 16.6892H74.6193V16.893H74.5672V16.6892ZM79.9884 16.5363L79.4932 16.8166V16.6637C79.3629 16.7656 79.2847 16.8676 79.2065 16.9949L79.4932 16.8166L79.5453 16.8676C79.1544 17.9122 79.8581 18.9569 78.998 19.8232L79.2847 19.39C79.415 19.441 79.3368 19.5938 79.3368 19.6703L79.6756 19.2371C79.7538 19.4919 79.2586 19.976 79.3368 20.0015C79.5974 19.8232 79.806 19.3136 80.0405 19.3136L79.9884 19.6448L80.249 19.1607L80.4054 19.2881L79.9102 20.1799C80.3533 19.8996 80.5357 19.3391 80.7442 18.9569C80.9527 19.2117 80.666 19.4664 80.5879 19.6958L80.9267 19.1607C81.1352 19.3645 80.9006 19.5429 80.8745 19.7722H81.0049C81.2916 18.5492 80.3272 17.6574 79.9884 16.5363ZM76.548 16.5363C76.4959 16.8676 76.965 17.0969 76.6784 17.4281C76.6784 17.0969 77.0693 16.7656 76.548 16.5363ZM71.6221 16.6892H71.8306C71.8566 16.6637 71.9088 16.6382 71.8827 16.5618C71.8045 16.5873 71.6221 16.5873 71.6221 16.6892ZM75.6619 17.3007C75.6358 17.0969 75.4012 16.7656 75.6098 16.4854C75.5837 16.7656 75.8443 17.0204 75.6619 17.3007ZM75.2449 16.4089C75.2188 16.7656 74.906 17.6065 75.5055 17.6319L75.2449 16.4089ZM68.4945 16.3325L68.703 16.5363C68.9115 16.7147 69.0157 17.0969 68.7551 17.2243C68.9897 17.3262 69.2764 17.3517 69.2503 17.5555C69.5109 17.4791 69.6934 17.2243 69.6934 16.9695C69.5891 16.8676 69.4849 16.7656 69.3546 16.6892L69.2764 17.1223C69.0418 16.8676 68.8333 16.358 68.4945 16.3325ZM74.9582 17.4281C74.7236 17.1478 74.8018 16.6637 74.906 16.3325L75.0364 16.1287C74.9321 16.5618 74.9321 16.995 74.9582 17.4281ZM71.179 16.1287L71.1269 16.0777C71.1529 16.1541 71.0747 16.2815 71.179 16.3325C71.179 16.2815 71.179 16.1541 71.2572 16.1287L71.4136 16.2815C71.5699 16.1541 71.8827 16.0267 71.9609 15.7465C71.6481 15.6445 71.3093 15.8229 71.179 16.1287ZM75.6098 15.3133L76.0268 15.7465C75.688 15.8229 76.2613 16.0013 76.1571 16.2051C76.2092 15.9503 76.131 15.67 75.9486 15.4662C76.3135 15.4407 76.8087 15.721 77.1214 16.0013L76.9911 15.8739C76.965 15.8229 77.0172 15.7974 77.0432 15.7719C77.2517 16.0013 77.1996 15.5936 77.3299 15.6191C77.1475 15.4917 77.0693 15.2369 76.8347 15.2878L77.2517 15.6955L77.1996 15.7719C77.0031 15.5604 76.7508 15.4058 76.4704 15.3249C76.19 15.244 75.8923 15.24 75.6098 15.3133ZM73.1598 15.135L73.0816 15.084C72.821 15.4917 72.1433 15.6191 72.1173 16.2306L73.1598 15.135ZM73.4204 15.135C73.3422 15.3643 72.8992 15.4152 72.6646 15.67C72.43 15.9248 72.1173 16.307 72.2215 16.6382C72.404 16.256 72.6907 15.9248 73.0555 15.67C72.7167 16.0267 72.6385 16.4599 72.2997 16.893C72.8731 17.1478 72.4822 16.358 73.0034 16.2051C72.8992 16.5363 72.2997 17.0459 72.7167 17.4536C72.821 17.3262 72.7688 17.1223 72.7949 16.9695L72.847 17.0204L73.1337 16.5363C72.9774 16.7911 72.9513 17.0969 73.0555 17.3517C73.3162 17.4026 73.1337 17.8612 73.4986 17.9632C73.6289 17.9122 73.5247 17.7593 73.5508 17.6829C73.5768 17.8612 73.7332 17.9886 73.8896 18.0141C73.7853 17.6065 73.4204 17.2497 73.238 16.7402C73.2901 16.1541 73.6029 15.5936 74.072 15.2369L75.2449 15.2878C75.2188 15.3643 75.297 15.5171 75.1927 15.5681C75.1927 15.1604 74.6193 15.4917 74.4108 15.2878L73.8635 15.721L74.1502 15.7719L73.8635 16.0522C74.0199 16.1796 73.5508 17.0714 74.0199 17.4536C74.072 17.0969 74.0981 16.7402 74.072 16.3834C74.1502 16.3834 74.1763 16.3325 74.2023 16.307C74.1502 16.7402 73.9678 17.0969 74.2023 17.4791L74.4108 17.6829C74.463 17.1733 74.2023 16.5363 74.6975 16.0777L75.1927 15.7974C75.1667 16.2815 75.7401 16.1796 75.7401 16.6637L75.7922 17.6829C75.8443 17.6829 75.9225 17.7084 75.9225 17.7593C76.091 17.5791 76.2159 17.3642 76.2881 17.1305C76.3603 16.8968 76.3779 16.6502 76.3395 16.4089C76.548 16.5108 76.7565 16.6382 76.9129 16.8166L76.965 16.7656L76.548 16.2815C76.9911 16.3325 76.965 16.7911 77.2517 17.0204C77.4603 16.8166 77.1736 16.6382 77.0954 16.4854L77.6427 17.2243C78.0336 16.7911 77.5124 16.358 77.356 16.0013C77.7991 16.2051 77.6948 16.8676 77.9294 17.0969C78.2682 16.6892 77.8251 16.1541 77.6948 15.9248C77.9294 16.256 78.1379 16.5873 78.3203 16.944C78.5288 16.7402 78.2682 16.5108 78.2682 16.307L78.5288 16.8421C78.607 16.8166 78.607 16.7402 78.607 16.6382L78.8155 17.0714C79.0762 16.4854 78.3725 16.0522 78.1118 15.6191C77.6948 15.3133 77.2257 15.1095 76.7305 15.033C77.5645 14.9821 78.3464 15.4407 78.7374 16.1796C78.8155 16.3834 78.8156 16.5873 79.0241 16.7402C79.4411 16.358 79.9363 16.256 80.1969 16.7911C80.64 17.8358 81.7346 19.0843 80.7964 20.1799C80.8224 20.8169 79.6496 21.0462 80.249 21.6067C80.3272 22.8807 78.8937 23.2119 78.2943 23.9763C78.0858 24.0527 77.7991 24.0527 77.7469 24.3075L77.9033 24.4604L77.9555 24.4095L77.9033 24.6642C77.7469 24.0018 77.3039 24.7662 76.9129 24.6642C77.1736 24.5623 77.3821 24.4349 77.6166 24.2566C76.4438 24.7916 74.7236 22.2692 74.489 24.4604L73.238 25.2757C73.6811 25.9892 74.5933 26.0656 75.3752 25.9127C75.1927 25.2757 75.9225 24.97 76.2874 24.6133C76.4698 24.6388 76.6002 24.4349 76.7305 24.6642C76.4698 24.5878 76.105 24.7916 75.8443 24.9955C75.6879 25.2248 75.5055 25.4796 75.6098 25.6834L76.4438 24.9955L75.7401 25.7599C76.3395 25.9637 76.7565 25.2503 77.2257 24.8936C77.1475 25.1229 76.548 25.4541 76.4438 25.8363C77.0693 25.7344 77.6688 25.4796 78.19 25.0974C78.0858 24.8936 77.773 25.1484 77.773 25.0974V25.021L77.1475 25.3522C77.356 25.1738 77.5906 25.021 77.773 24.8171C77.7209 24.8426 77.6948 24.8936 77.6948 24.97C78.0336 24.8426 78.6331 24.9445 78.9719 24.6388C78.998 24.4604 79.1544 24.4349 79.3368 24.4349C78.8937 25.021 78.8156 26.0401 77.8512 26.142C77.6948 26.5752 77.0693 26.4733 76.6523 26.6771C75.8704 26.5242 75.2449 25.8618 74.3066 26.193C75.1927 26.7536 76.0789 27.5434 77.3039 27.416C77.6948 27.2122 77.7991 26.3968 78.3985 26.83C79.1544 26.3204 79.7538 27.1357 80.2751 27.416C80.1969 27.4415 80.0405 27.3905 80.0145 27.4925V27.5434C80.5618 27.2886 80.5879 28.0785 81.057 28.3078V28.4352C80.9267 28.104 80.5618 28.1294 80.3533 27.9766C80.3012 28.002 80.2751 28.0275 80.2751 28.104L80.4054 28.2314C79.9102 28.1804 79.415 27.7982 79.0762 27.7472C79.5193 27.6708 79.832 28.1549 80.1969 27.9766C79.6235 27.4925 78.6592 27.4415 77.9033 27.4925C78.1379 27.6708 78.607 27.6708 78.9459 27.7472L78.8155 27.9001C78.5549 27.5179 78.581 28.0275 78.3203 27.9001C78.2161 27.8746 78.0336 28.104 77.8251 28.1804C78.0336 28.3078 78.1118 28.69 78.4507 28.6645L78.6592 28.3842L78.8155 28.5116C78.6331 28.7409 78.3203 28.7919 78.0858 28.6135C78.0336 28.5881 78.0076 28.5371 77.9815 28.5116L77.1475 27.5434L75.9486 27.4925C76.131 27.9766 75.9486 28.5626 76.105 29.0467C75.8964 29.1486 75.688 28.8429 75.5055 28.7664C75.6619 28.4862 75.2188 28.5116 75.1667 28.5116C75.1145 28.5116 75.0364 28.5371 75.0103 28.5626C75.0624 28.2823 74.2284 27.4925 74.9321 27.2122C75.1406 27.5179 75.1146 28.0275 75.5055 28.3078C75.5055 27.1867 74.7236 26.8045 73.8896 26.142L73.7593 26.3459C73.7332 26.1675 73.5247 26.142 73.4204 26.142C73.3422 26.3714 73.6811 26.6262 73.7593 26.83V27.9001C73.4204 27.6453 73.5768 27.0338 73.0555 26.83L73.4726 27.1612C73.7332 27.0338 73.5508 26.779 73.6289 26.6262C73.3944 26.4988 73.3422 26.1166 72.9774 26.0656C72.6646 26.3204 73.0295 26.7536 72.9252 27.1612C72.8992 27.7472 72.9774 28.3842 72.847 28.9193C72.4561 28.69 72.7167 27.9256 72.1433 27.8492V27.6963C72.2476 27.7218 72.2997 27.6199 72.3779 27.5689C72.1433 27.5434 71.9348 27.416 71.8045 27.2377C71.9869 27.1612 71.9609 26.9829 71.9609 26.8555C71.7003 26.6771 72.1694 26.3459 72.0912 26.0401C72.2476 25.9382 72.4822 25.9382 72.5082 25.7089C70.5013 26.0147 68.2078 26.0911 66.253 26.7281L66.5397 26.4478C66.2791 26.244 66.0706 26.5752 65.836 26.5752L66.0445 26.779C64.9498 27.0848 64.4286 28.5881 63.2557 28.4352C63.36 28.2059 63.7249 28.1549 63.9594 28.104L64.0376 28.1549L64.1679 28.0275C63.8552 27.8492 63.8291 27.6963 64.0376 27.467C64.8977 26.3459 66.5918 26.2949 67.2174 25.0719C67.8429 24.4859 68.7551 24.0018 68.5987 23.0336C68.286 22.473 67.6604 22.6769 67.2174 22.8297C67.3737 23.3903 67.2695 24.0018 66.9307 24.4604C66.4876 24.8426 65.8099 25.0719 65.419 25.5305C64.9238 25.3012 65.5493 24.7152 65.0802 24.5114C65.2105 24.2056 65.8099 23.7215 65.2887 23.4412C65.8621 22.3966 67.0349 23.059 67.7907 22.3456C67.2434 21.7596 66.227 21.8106 65.4972 22.0144C65.2626 22.2437 64.9759 22.2692 64.7935 22.4985C65.028 23.0336 64.9498 23.6705 64.585 24.1547C63.8812 24.1547 64.2461 25.4031 63.4121 25.0464L62.7084 25.5815C62.4999 25.2248 62.526 24.7662 62.7605 24.4095C63.0993 24.1801 63.2557 23.7979 63.5424 23.4667L63.4642 23.3903C63.8552 23.1355 64.2461 23.0081 64.4546 22.4985C64.1679 22.7023 63.6206 22.524 63.4642 22.6514C63.8552 22.4985 64.4286 22.3456 64.7935 22.4985C65.028 21.938 65.7578 21.938 66.253 21.6832C65.9663 21.4029 65.4711 20.7659 65.002 21.3519C64.5068 21.3519 64.1679 21.0717 63.8031 20.664C64.0116 20.2054 63.4903 20.2308 63.4642 19.8741L63.2036 18.5747C63.386 18.5492 63.5685 18.6256 63.6988 18.7785L63.36 18.6256C63.5424 19.1862 64.0898 19.5174 64.5328 19.976C64.611 19.6958 64.4546 19.2881 64.2722 19.0333C64.7153 19.0588 64.7935 19.441 65.1844 19.6193C64.9498 19.6703 64.7153 19.3136 64.4807 19.1607C64.6892 19.5938 64.585 20.3837 65.2365 20.5875V20.1034C65.3929 20.3073 65.3929 20.613 65.5754 20.7149C65.8099 20.5875 65.7578 20.2054 65.6796 20.027C65.5754 19.8996 65.3929 19.8486 65.4711 19.6958C65.8099 20.0015 65.7578 20.4601 65.7317 20.9697C66.1748 21.4284 66.9307 21.4538 67.1131 21.938C67.8429 22.3456 68.1556 22.1673 68.8072 22.6769C68.8854 22.1163 68.7812 21.5303 68.4684 21.0716C67.9471 20.5621 66.9046 20.4601 66.7222 19.6193C65.419 19.6958 65.0802 18.2689 64.0898 17.7084C64.0376 17.4026 63.5424 17.4281 63.386 17.2243C63.6467 16.9949 63.777 17.4536 64.0898 17.3262C64.1158 16.9949 63.777 16.6128 63.5164 16.307H63.8031C63.8031 16.358 63.777 16.4854 63.8552 16.5108C63.9334 16.5363 64.0898 16.4854 64.0898 16.3834H64.0116V16.1796H64.0898C64.0376 16.358 64.1158 16.5618 64.2983 16.6637L64.4546 16.3834C64.4807 16.3834 64.2983 16.893 64.5589 17.0204C64.8195 16.9185 64.611 16.7656 64.6371 16.5873C65.2626 16.6382 65.3147 17.53 65.9403 17.6829C66.3833 17.9632 67.1131 18.1415 67.1392 18.753C66.9307 19.441 67.7386 19.4664 67.9732 19.8486L69.0679 21.8106C70.5013 20.9697 68.312 20.0525 68.9636 18.8295C68.7812 18.5747 68.2599 18.6256 68.4684 18.2689C67.6604 18.1415 68.286 17.5045 67.9211 16.9949C68.1817 16.7402 67.9993 16.358 68.0514 16.0267L68.3902 16.358L68.5466 16.1541C68.9636 16.7402 69.5109 16.358 69.8758 17.0459C70.371 16.5363 71.1008 16.5363 71.179 15.8229C71.5178 15.5936 71.9348 15.3388 72.3779 15.5426C72.6646 15.2624 73.1077 14.7273 73.4204 15.135ZM115.565 61.4055C115.461 60.845 116.086 60.7176 116.164 60.1825C116.399 60.208 116.686 60.1315 116.868 60.2589V60.3863C116.998 60.3863 117.155 60.4373 117.207 60.3354C116.972 59.7748 117.624 59.8258 117.911 59.52C117.05 58.6792 118.406 58.5263 118.119 57.6855C118.354 57.4307 118.614 57.3543 118.823 57.1505C118.067 56.2077 119.839 56.0803 119.657 55.2395C118.275 55.1376 116.633 55.3414 115.773 54.1694C115.435 53.4814 116.086 52.9973 116.19 52.5132C116.529 51.7488 115.148 52.2329 115.591 51.3666C116.79 50.8825 115.096 50.6787 115.304 49.9907C115.435 49.9398 115.487 49.736 115.669 49.7869C116.112 48.6913 113.975 49.0735 114.131 48.0288L116.66 45.1751L116.764 44.6401C115.93 43.6209 117.181 42.6782 117.05 41.6845C116.712 41.4552 116.295 41.3023 115.878 41.2768C115.122 40.6653 115.356 39.7735 114.913 38.9582C114.47 38.1428 115.773 37.9135 116.008 37.2511C116.112 36.716 116.581 36.2319 117.05 35.8752C117.78 33.7604 120.491 34.3974 122.315 34.1681C123.384 33.9387 124.452 34.1171 125.391 33.7859C125.547 33.0724 126.068 32.4864 126.772 32.2316L129.274 32.2826C130.577 32.9196 131.802 33.582 133.184 34.1681L133.105 34.3974C133.262 34.5757 133.523 34.6267 133.757 34.4993C134.278 35.3146 135.295 35.9261 135.503 36.9708C136.337 37.9645 136.754 39.2384 136.676 40.5124C136.65 40.971 136.129 41.608 136.337 41.9902L136.181 42.1431C136.233 42.7291 136.676 43.2387 136.468 43.8502C136.78 44.5127 136.937 45.2516 136.937 45.965C136.624 46.1688 137.041 46.2962 136.937 46.551C136.989 46.6275 136.885 46.7039 136.806 46.6784C136.937 47.239 136.572 48.0798 136.52 48.7677C136.129 49.7869 135.321 50.5258 134.487 51.2902C133.34 52.5642 131.177 52.4877 129.509 52.182C128.805 52.2584 129.066 53.0228 129.014 53.4305C129.352 53.4559 129.535 53.0992 129.926 53.2011C130.577 53.8891 129.326 54.1948 129.378 54.9847C129.3 56.0548 129.717 57.2779 130.082 58.3735C130.212 59.0869 130.864 59.4436 131.281 59.9787C132.923 60.794 133.913 62.4247 135.217 63.4439C137.979 59.622 139.7 54.2968 139.7 48.411C139.7 36.7669 132.975 27.2886 124.713 27.2886C116.451 27.2886 109.727 36.7669 109.727 48.411C109.727 54.2713 111.447 59.5455 114.184 63.3929C114.418 62.603 115.148 62.2208 115.565 61.4055ZM106.86 48.4875C106.86 35.2891 114.835 24.6133 124.661 24.6133C134.487 24.6133 142.462 35.2891 142.462 48.4875C142.462 61.6858 134.487 72.3616 124.661 72.3616C114.835 72.3616 106.86 61.6603 106.86 48.4875ZM14.1263 56.3096C14.4912 55.5962 13.4226 55.8 13.1359 55.3669C13.188 55.0866 13.0317 54.7554 13.2923 54.5516C12.6668 54.0165 13.579 53.7872 13.579 53.2521C13.8917 53.0992 14.0221 53.5579 14.2827 53.3285C14.2566 52.6406 13.3965 53.1247 12.7971 52.9718C11.4939 52.2584 10.2168 51.1628 9.66948 49.8379C8.65301 49.1245 8.93971 47.876 8.28813 47.0097C7.55835 46.6529 7.4541 45.7357 7.32378 44.9713C7.66261 44.2069 7.32378 42.7546 8.57482 42.4998C8.34025 41.2258 9.69555 40.4615 9.82586 39.2384C12.1455 38.525 9.04396 36.8943 10.6599 35.7733C10.7641 34.5502 11.7285 33.4546 12.7971 32.9196C14.1003 33.0724 14.6476 31.6201 15.8204 31.6201C17.28 31.0341 17.7491 32.6648 19.0523 32.5883C19.6257 32.8686 20.4336 33.1744 20.3294 33.9897C21.4241 33.7094 22.7533 33.3272 23.7958 34.0661C24.5777 34.9834 26.1415 35.1617 26.2979 36.5631C26.3761 37.6842 27.5229 38.3212 28.1745 39.0856L28.2266 40.9965C28.2266 42.0667 27.158 42.3979 26.35 42.7036C26.767 43.5954 26.6628 44.5382 26.5846 45.5573C27.5489 46.4491 27.992 47.6212 29.0867 48.411C29.2431 49.3028 28.0963 49.5066 27.4968 49.9143C27.4447 50.1691 27.575 50.3729 27.6532 50.6023C28.5133 50.908 27.1059 51.3412 27.8617 51.8253C26.7149 52.4622 27.6793 53.405 27.7835 54.2713C27.4186 55.4688 25.9851 55.3414 24.9947 55.7236C24.4735 56.0294 23.0921 55.265 23.3527 56.4115C23.6394 56.4115 24.3171 56.3606 24.5517 56.7428C24.4995 56.7683 24.4735 56.8192 24.3953 56.7937C24.1607 57.3288 24.4474 57.8384 24.7341 58.297C26.2458 59.0359 27.2362 60.5647 28.5654 61.6858C28.7479 61.7367 28.8782 62.1444 29.1127 61.8896L30.2074 63.0617C32.7616 59.2652 34.3515 54.1184 34.3515 48.4875C34.3515 36.8434 27.6271 27.3651 19.365 27.3651C11.103 27.3651 4.37862 36.8434 4.37862 48.4875C4.37862 53.8381 5.81211 58.7557 8.15781 62.4756C9.93012 60.1061 13.4226 59.3672 14.1263 56.3096ZM1.53772 48.4875C1.53772 35.2891 9.5131 24.6133 19.339 24.6133C29.1649 24.6133 37.1403 35.2891 37.1403 48.4875C37.1403 61.6858 29.1649 72.3616 19.339 72.3616C9.5131 72.3616 1.53772 61.6858 1.53772 48.4875ZM28.1223 14.3451C28.1484 14.3706 28.1745 14.4215 28.1484 14.4725L28.0441 14.5999C28.0181 14.6254 27.966 14.6508 27.9138 14.6508C27.9138 14.6508 25.933 14.1158 25.0208 14.7273C24.4995 15.084 24.0304 15.7974 24.4474 16.4089C24.9165 17.0714 25.7766 16.7402 26.35 16.5363L27.2362 16.2051L27.3926 16.1541C27.3926 16.1541 29.4776 15.4407 30.2595 16.5618C31.0936 17.7593 30.4159 19.1862 29.3473 19.8996C28.7218 20.3327 27.966 20.5621 27.2101 20.5111L27.3404 20.9697C27.3404 21.0207 27.3404 21.0717 27.2883 21.0971L27.1319 21.2245C27.0798 21.25 27.0277 21.25 27.0016 21.2245L25.2554 19.7977C25.2293 19.7722 25.2032 19.7212 25.2293 19.6958L25.3596 19.5174C25.3857 19.4919 25.4378 19.4664 25.4899 19.4919C25.4899 19.4919 27.9138 20.3073 28.9564 19.5938C29.6861 19.1097 30.1553 18.167 29.5819 17.3517C29.0606 16.6382 28.3569 16.9185 27.6793 17.1733L26.6889 17.53C26.6367 17.5555 26.5846 17.581 26.5325 17.581C26.0894 17.7339 25.5942 17.8358 25.125 17.8867C24.5777 17.9122 24.0825 17.6574 23.7698 17.2497C23.6177 17.0228 23.5179 16.7663 23.4774 16.4979C23.4369 16.2295 23.4566 15.9557 23.5352 15.6955C23.7437 15.1859 24.1086 14.7273 24.5777 14.447C25.099 14.0648 25.7506 13.861 26.4022 13.861L26.324 13.5807C26.324 13.5298 26.324 13.4788 26.3761 13.4533L26.5325 13.3514C26.5846 13.3259 26.6367 13.3259 26.6628 13.3514M33.9866 10.8544C33.9866 10.8035 34.0387 10.8035 34.0648 10.8289C34.0908 10.8544 35.0812 11.7717 35.4461 12.4087C36.1498 13.6572 36.202 15.4152 34.7945 16.1287C34.5288 16.2682 34.2361 16.3516 33.9353 16.3735C33.6345 16.3955 33.3323 16.3554 33.0483 16.256M32.918 17.0204C32.918 16.9695 32.9701 16.944 33.0222 16.944C33.0222 16.944 34.3775 16.9185 35.0031 16.5618C36.7493 15.6955 37.427 13.6062 36.5147 11.8991C36.4887 11.8481 36.4626 11.8226 36.4626 11.7717C35.9413 10.8035 34.2212 9.91168 34.2212 9.91168C34.169 9.8862 34.169 9.83525 34.169 9.78429L34.4036 8.4084C34.4036 8.35744 34.3775 8.35744 34.3515 8.38292L33.9605 8.58676C33.9084 8.61223 33.8823 8.66319 33.8823 8.71415L33.6999 9.80977C32.9962 9.73333 32.2925 9.86072 31.6669 10.192C29.8686 11.1347 29.2431 13.224 30.2335 15.033C30.7026 15.8993 32.4228 16.7911 32.4228 16.7911C32.4749 16.8166 32.4749 16.8676 32.4749 16.9185L32.2143 18.3708C32.2143 18.4218 32.2403 18.4218 32.2664 18.4218L32.6834 18.218C32.7355 18.1925 32.7616 18.1415 32.7616 18.0906L32.918 17.0204ZM32.6052 15.9248C32.6052 15.9758 32.5531 15.9758 32.527 15.9503C32.501 15.9248 31.5888 15.135 31.2239 14.498C30.4159 13.0202 30.3638 11.415 31.8494 10.6761C32.3707 10.4213 32.9701 10.3703 33.5174 10.5487L32.6052 15.9248ZM41.2061 8.05169C41.2322 8.07717 41.2322 8.12813 41.2061 8.17908L41.0758 8.30648C41.0498 8.33196 40.9976 8.35744 40.9455 8.33196C40.9455 8.33196 39.1471 7.38922 38.1046 7.82237C37.5312 8.05169 36.9057 8.66319 37.1663 9.35114C37.4791 10.09 38.3913 9.93716 38.9908 9.86072L39.929 9.70785L40.0854 9.68237C40.0854 9.68237 42.2747 9.4021 42.8221 10.6761C43.3955 12.0265 42.4051 13.275 41.2061 13.7591C40.5001 14.064 39.7072 14.118 38.9647 13.9119L38.9908 14.3706C38.9908 14.4215 38.9647 14.4725 38.9126 14.4725L38.7301 14.5489C38.678 14.5744 38.6259 14.5489 38.5998 14.5234L37.2184 12.7654C37.1924 12.7399 37.1924 12.6889 37.2184 12.638L37.3748 12.4851C37.4269 12.4596 37.4791 12.4596 37.5051 12.4851C37.5051 12.4851 39.6945 13.7845 40.8934 13.3004C41.7013 12.9692 42.379 12.1539 41.988 11.2621C41.6492 10.4467 40.8673 10.5996 40.1636 10.6761L39.1211 10.8289L38.9647 10.8544C38.4955 10.9054 38.0003 10.9309 37.5312 10.8799C37.0099 10.778 36.5408 10.4467 36.3323 9.96264C36.1238 9.42757 36.1759 8.84155 36.4887 8.35744C36.8014 7.89881 37.2445 7.5421 37.7918 7.33826C38.3913 7.08347 39.0429 7.00703 39.6945 7.13443L39.6684 6.82868C39.6684 6.77772 39.6945 6.72676 39.7466 6.72676L39.929 6.65032C39.9812 6.62484 40.0333 6.65032 40.0593 6.6758M47.8523 5.86046C47.8784 5.88594 47.8784 5.9369 47.8262 5.98786L47.6438 6.11525C47.5917 6.14073 47.5395 6.14073 47.5135 6.11525C47.5135 6.11525 45.9497 5.09608 45.0114 5.40183C44.6204 5.52923 44.7247 5.73306 44.8289 6.0643L46.1582 10.09L46.2103 10.2429C46.2885 10.4977 46.3927 10.7525 46.5491 11.0073C46.7837 11.2621 47.0965 11.1857 47.3831 11.1092L47.5135 11.0837C47.5656 11.0583 47.5917 11.0837 47.6177 11.1347L47.6698 11.2876C47.6959 11.3385 47.6698 11.364 47.6177 11.3895L44.855 12.2558C44.8029 12.2813 44.7768 12.2558 44.7508 12.2048L44.6986 12.0774C44.6986 12.0265 44.6986 11.9755 44.7508 11.9755H44.7768L44.9332 11.9246C44.9332 11.9246 45.4284 11.7462 45.4545 11.415C45.4545 11.1092 45.3763 10.778 45.272 10.4977L43.9167 6.42101L43.8646 6.26813C43.8288 6.16652 43.7556 6.08155 43.6592 6.02975C43.5629 5.97796 43.4503 5.96302 43.3433 5.98786C42.379 6.29361 41.8577 7.10895 41.7013 8.07717H41.4407C41.3886 8.07717 41.3625 8.02621 41.3625 8.00073V6.14073C41.3625 6.08978 41.3886 6.0643 41.4407 6.0643L41.9359 6.03882C41.988 6.03882 42.0402 6.03882 42.0923 6.01334L46.1582 4.71389C46.2103 4.68841 46.2624 4.66293 46.2885 4.63745L46.6273 4.30622C46.6534 4.28074 46.7055 4.28074 46.7316 4.30622" fill="#FFFEF8"/>
<path fill-rule="evenodd" clip-rule="evenodd" d="M51.5272 6.54827C51.9703 6.49731 52.3873 6.29347 52.7001 5.98772C52.9868 5.63101 53.091 5.17238 52.9868 4.73923C52.7262 3.64362 51.7097 3.64362 50.7975 3.84745C50.5108 3.92389 49.9113 4.07677 49.7028 4.2806C49.4943 4.48444 49.5464 4.63731 49.5986 4.89211L50.0677 6.80306C50.0677 6.85402 50.1198 6.8795 50.172 6.85402M51.4491 6.98142L50.2501 7.26169C50.198 7.26169 50.172 7.31265 50.198 7.36361L50.5368 8.81593C50.5629 8.86689 50.5629 8.91785 50.5629 8.96881C50.5629 8.96881 50.7714 10.0899 51.6054 9.9625L51.7358 9.93702C51.7879 9.93702 51.8139 9.9625 51.84 9.98798L51.8661 10.1154C51.8661 10.1663 51.84 10.1918 51.8139 10.2173L49.1294 10.8288C49.0773 10.8288 49.0512 10.8033 49.0252 10.7778L48.9991 10.6504C48.9991 10.5995 48.9991 10.574 49.0512 10.5485C49.1034 10.5231 49.1555 10.5231 49.1815 10.4976C49.1815 10.4976 49.6507 10.3447 49.7289 10.0389C49.7549 9.73319 49.7028 9.40196 49.5986 9.09621L48.7645 5.60553C48.7645 5.55457 48.7385 5.50361 48.7385 5.45265C48.7385 5.45265 48.53 4.35704 47.722 4.48444L47.6177 4.50992C47.5656 4.50992 47.5396 4.48444 47.5135 4.45896L47.4614 4.33156C47.4614 4.2806 47.4874 4.25512 47.5135 4.22964L51.1884 3.36334C51.2405 3.36334 51.2927 3.33787 51.3448 3.33787C51.3448 3.33787 53.6644 3.15951 53.9772 4.50992C54.2118 5.52909 52.674 6.57375 52.674 6.57375C52.674 6.57375 52.6219 6.65018 52.648 6.62471C54.1336 7.84772 56.0101 10.0389 57.7564 10.8288C58.1734 10.9307 58.6425 10.8033 58.9553 10.4976C59.242 10.0899 59.6069 9.14716 60.1542 9.351C60.6234 9.52935 60.3627 10.0644 60.1542 10.2428C59.3723 10.9307 58.3558 11.2874 57.3133 11.262C54.9415 10.9307 53.482 8.30634 51.5272 7.03238C51.5272 6.98142 51.4751 6.98142 51.4491 6.98142Z" fill="#FFFEF8"/>
<path fill-rule="evenodd" clip-rule="evenodd" d="M61.4574 3.33798C61.4835 3.38894 61.4574 3.43989 61.4313 3.43989L61.275 3.54181C61.2228 3.56729 61.1707 3.56729 61.1446 3.54181C61.1446 3.54181 59.3723 2.3188 58.0692 2.52264C57.7825 2.5736 57.3394 2.65003 57.1309 2.85387C56.9224 3.0577 56.9484 3.36346 57.0006 3.64373L57.2091 5.09605C57.2091 5.14701 57.2612 5.17249 57.3133 5.17249L57.8085 5.09605C57.8607 5.09605 57.9128 5.07057 57.9649 5.0451C57.9649 5.0451 59.0335 4.6629 59.0074 3.66921L59.2681 3.64373C59.3202 3.64373 59.3463 3.66921 59.3463 3.69469L59.7633 6.49742C59.7633 6.54838 59.7372 6.57386 59.7112 6.59934L59.5287 6.62482C59.4766 6.62482 59.4245 6.59934 59.4245 6.54838C59.3463 6.29359 59.216 6.03879 59.0596 5.80948C58.7468 5.45277 58.3559 5.47824 57.9389 5.55468L57.3915 5.63112C57.3394 5.63112 57.3133 5.68208 57.3133 5.73304L57.574 7.54208C57.574 7.59303 57.6 7.66947 57.6 7.69495C57.6261 7.89879 57.7303 8.10262 57.8346 8.28098C58.0692 8.53577 58.5644 8.48481 58.8771 8.43385C60.3888 8.20454 61.1968 7.46564 61.9005 6.14071L62.1611 6.21715C62.2132 6.21715 62.2393 6.26811 62.2132 6.31906L61.6659 8.38289C61.6398 8.43385 61.6138 8.45933 61.5617 8.48481L56.0362 9.27467C55.9841 9.27467 55.958 9.24919 55.932 9.19823L55.9059 9.07084C55.9059 9.01988 55.9059 8.9944 55.932 8.96892C55.9841 8.94344 56.0102 8.94344 56.0623 8.94344C56.0623 8.94344 56.5314 8.84152 56.6096 8.53577C56.6617 8.23002 56.6357 7.89879 56.5575 7.59303L56.0102 4.02592C56.0102 3.97496 55.9841 3.924 55.9841 3.87304C55.9841 3.87304 55.8798 2.77743 55.0719 2.82839H54.9937C54.9416 2.82839 54.9155 2.80291 54.8894 2.75195L54.8634 2.62455C54.8373 2.5736 54.8634 2.52264 54.9155 2.52264H54.9416L60.4149 1.73278C60.467 1.73278 60.5191 1.75826 60.5452 1.78374M63.9074 6.67578C63.9595 7.36372 63.9334 7.87331 64.7674 7.87331H64.8717C64.9238 7.87331 64.9499 7.89879 64.9499 7.94974V8.07714C64.9499 8.1281 64.9238 8.15358 64.8717 8.15358L62.6303 8.30646C62.5781 8.30646 62.5521 8.28098 62.5521 8.23002V8.10262C62.5521 8.05166 62.5781 8.02618 62.6042 8.02618L62.7345 8.0007C62.7345 8.0007 63.2036 7.92427 63.3079 7.64399C63.3861 7.33824 63.3861 7.03249 63.334 6.70125L63.0733 3.10866V2.95579C63.0733 2.95579 63.0733 1.83469 62.2654 1.83469H62.1872C62.1351 1.83469 62.109 1.80921 62.109 1.75826V1.60538C62.109 1.55442 62.1351 1.52894 62.1872 1.52894L64.2201 1.40154C64.2722 1.40154 64.3244 1.42702 64.3504 1.4525L67.869 6.5229C67.895 6.54838 67.9211 6.59934 67.9211 6.59934V6.5229L67.6605 2.82839V2.67551C67.6605 2.67551 67.6605 1.52894 66.8004 1.55442H66.6961C66.644 1.55442 66.6179 1.52894 66.6179 1.47798V1.32511C66.6179 1.27415 66.644 1.24867 66.6961 1.24867L68.9636 1.09579C69.0158 1.09579 69.0418 1.12127 69.0418 1.17223V1.29963C69.0418 1.35059 69.0158 1.37607 68.9897 1.40154L68.8594 1.42702C68.8594 1.42702 68.3903 1.50346 68.2599 1.78374C68.1817 2.08949 68.1817 2.42072 68.2339 2.72647L68.5988 7.87331C68.5988 7.92427 68.5727 7.94974 68.5206 7.94974L67.8429 8.0007C67.7908 8.0007 67.7387 7.97522 67.7126 7.94974L63.6728 2.24236C63.6467 2.21688 63.6467 2.19141 63.6207 2.16593V2.24236M76.1311 2.85387C76.1571 2.90483 76.1311 2.95579 76.0789 2.95579L75.9226 3.03222C75.8704 3.0577 75.8183 3.03222 75.7922 3.00675C75.7922 3.00675 74.2284 1.52894 72.9253 1.52894C72.6386 1.52894 72.1694 1.52894 71.9609 1.7073C71.7524 1.88565 71.7003 2.19141 71.7003 2.47168L71.6742 3.924C71.6742 3.97496 71.7003 4.00044 71.7524 4.00044H72.2476C72.2998 4.00044 72.3519 4.00044 72.404 3.97496C72.404 3.97496 73.5247 3.77113 73.6551 2.77743H73.9157C73.9678 2.77743 73.9939 2.80291 73.9939 2.85387L73.9678 5.68208C73.9678 5.73304 73.9417 5.75852 73.8896 5.75852H73.7072C73.655 5.75852 73.629 5.73304 73.6029 5.68208C73.5771 5.40656 73.4974 5.13844 73.3684 4.89222C73.1077 4.48455 72.7428 4.45907 72.2998 4.45907H71.7264C71.6742 4.45907 71.6482 4.48455 71.6482 4.53551L71.6221 6.37002V6.5229C71.6221 6.72674 71.6742 6.95605 71.7524 7.15988C71.9609 7.44016 72.4561 7.46564 72.7689 7.46564C74.3066 7.49112 75.2189 6.85413 76.1311 5.6566L76.3656 5.75852C76.4178 5.784 76.4178 5.83496 76.4178 5.86044L75.5577 7.82235C75.5316 7.87331 75.4795 7.89879 75.4534 7.89879L69.8237 7.82235C69.7716 7.82235 69.7455 7.77139 69.7455 7.74591V7.61851C69.7455 7.56755 69.7716 7.54208 69.7977 7.54208H69.928C69.928 7.54208 70.3971 7.5166 70.5535 7.23632C70.6578 6.93057 70.6838 6.62482 70.6578 6.31906L70.7099 2.70099V2.54812C70.7099 2.54812 70.7881 1.42702 69.9801 1.37607H69.9019C69.8498 1.37607 69.8237 1.32511 69.8237 1.27415V1.14675C69.8237 1.09579 69.8498 1.07031 69.9019 1.07031L75.4274 1.14675C75.4795 1.14675 75.5316 1.17223 75.5316 1.22319M86.2958 7.87331L86.3479 7.33824C86.374 7.00701 86.4261 6.70126 86.5825 6.42098C86.7389 6.19167 87.1819 6.19167 87.1819 6.19167H87.3383C87.3644 6.19167 87.3904 6.16619 87.3904 6.11523L87.4165 5.98783C87.4165 5.93687 87.3904 5.9114 87.3383 5.88592L84.8102 5.55468C84.758 5.55468 84.732 5.58016 84.7059 5.63112L84.6798 5.86044C85.3054 6.01331 85.5921 6.24263 85.5139 6.93057C85.3575 8.02618 84.2889 8.43385 83.2985 8.30646C82.5427 8.20454 81.8911 7.72043 81.6044 7.00701C81.3437 6.34454 81.2656 5.63112 81.3698 4.94318C81.5522 3.61825 82.3602 1.98757 83.924 2.16593C85.0969 2.3188 86.2176 4.33167 86.2176 4.33167C86.2436 4.38263 86.2958 4.38263 86.3479 4.38263L86.5825 4.35715C86.6346 4.35715 86.6607 4.30619 86.6607 4.25524L86.374 2.21688C86.374 2.16593 86.3218 2.14045 86.2697 2.11497L86.1394 2.08949C86.0873 2.08949 86.0351 2.11497 86.0091 2.14045L85.8006 2.52264C85.2207 1.94284 84.4305 1.60971 83.6012 1.59541C82.7719 1.5811 81.9702 1.88677 81.3698 2.4462C80.7182 3.0577 80.3012 3.87304 80.197 4.73934C79.9363 6.72674 81.1092 8.48481 83.1421 8.73961C83.7937 8.81604 84.8362 8.45933 85.2272 8.28098C85.2793 8.9944 84.9144 9.70782 84.5495 10.2174C84.1136 10.598 83.5438 10.7989 82.9597 10.778C81.2916 10.8289 81.7347 9.07084 80.4315 9.01988C79.9363 9.07084 80.0145 9.45303 80.0666 9.80974C80.5358 10.9563 82.6469 11.1601 83.8719 11.0582C85.7484 10.9054 86.0873 9.37659 86.2958 7.87331ZM92.0297 6.87961C92.0037 6.82865 92.0297 6.80317 92.0818 6.77769C92.0818 6.77769 93.9323 6.47194 94.1669 5.45277C94.4797 4.07688 92.2903 3.28702 92.2903 3.28702C92.2382 3.26154 92.1861 3.26154 92.134 3.23606L88.433 2.4462C88.3808 2.4462 88.3548 2.47168 88.3287 2.52264L88.3027 2.65003C88.3027 2.70099 88.3287 2.72647 88.3548 2.75195L88.459 2.77743C89.267 3.00675 88.9542 4.07688 88.9542 4.07688C88.9542 4.12784 88.9282 4.1788 88.9282 4.22976L88.1463 7.74591C88.0941 8.05166 87.9899 8.35742 87.8335 8.63769C87.625 8.89248 87.1298 8.81604 87.1298 8.81604L86.9734 8.79056C86.9474 8.79056 86.8952 8.81604 86.8952 8.867L86.8692 8.9944C86.8692 9.04536 86.8952 9.07084 86.9213 9.09632L89.6579 9.68234C89.7101 9.68234 89.7361 9.65686 89.7622 9.63138L89.7883 9.50399C89.7883 9.45303 89.7622 9.42755 89.7361 9.40207L89.6058 9.37659C88.7979 9.14727 89.1106 8.05166 89.1106 8.05166C89.1106 8.0007 89.1367 7.92427 89.1367 7.89879L89.4494 6.44646C89.4494 6.3955 89.5016 6.37002 89.5537 6.3955L90.7526 6.6503C90.8047 6.6503 90.7787 6.85413 90.8047 6.90509C92.0036 8.84152 92.2903 11.7207 94.3233 12.9947C95.2616 13.4533 96.3302 13.5297 97.3466 13.224C97.6073 13.1221 98.0764 12.7399 97.7376 12.4086C97.3206 12.0264 96.6169 12.7144 96.1738 12.9947C95.7568 13.1475 95.2876 13.0966 94.9488 12.8163C93.6456 11.3385 92.8377 8.58673 92.0297 6.87961ZM89.6319 5.96235C89.5798 5.96235 89.5537 5.91139 89.5798 5.86044L89.9968 3.924C90.0489 3.66921 90.101 3.51633 90.3617 3.43989C90.6223 3.36346 91.2739 3.43989 91.5345 3.51633C92.4467 3.72017 93.3589 4.12784 93.1244 5.24893C93.0462 5.70756 92.7334 6.08975 92.3164 6.26811C91.8733 6.44646 91.4303 6.37002 91.0132 6.26811L89.6319 5.96235Z" fill="#FFFEF8"/>
<path fill-rule="evenodd" clip-rule="evenodd" d="M101.412 7.56739C101.412 7.61835 101.386 7.64383 101.334 7.64383L101.152 7.66931C101.1 7.66931 101.048 7.64383 101.022 7.59287C101.022 7.59287 99.979 5.75835 98.7019 5.37616C98.4412 5.29972 97.9982 5.17233 97.7115 5.27424C97.4248 5.37616 97.3205 5.65643 97.2163 5.93671L96.7732 7.33807C96.7732 7.38903 96.7732 7.41451 96.8253 7.43999L97.2944 7.59287C97.3466 7.61835 97.3987 7.61835 97.4508 7.61835C97.4508 7.61835 98.5716 7.72026 98.9886 6.82849L99.2231 6.90492C99.2753 6.9304 99.3013 6.95588 99.2753 7.00684L98.4152 9.70765C98.4152 9.75861 98.3631 9.78409 98.3109 9.75861L98.1545 9.70765C98.1024 9.68218 98.0764 9.6567 98.0764 9.60574C98.1285 9.32546 98.1285 9.04519 98.0764 8.76492C97.946 8.30629 97.6072 8.17889 97.1902 8.0515L96.6429 7.89862C96.5907 7.87314 96.5647 7.89862 96.5386 7.94958L95.9913 9.70765L95.9392 9.86053C95.887 10.0644 95.861 10.2937 95.887 10.4975C95.9913 10.8287 96.4604 10.9816 96.7732 11.0835C98.2327 11.5422 99.2753 11.1855 100.526 10.2937L100.735 10.472C100.761 10.4975 100.761 10.5485 100.735 10.5994L99.3274 12.2556C99.3013 12.2811 99.2492 12.3066 99.1971 12.2811L93.828 10.6249C93.7759 10.6249 93.7498 10.574 93.7759 10.523L93.828 10.3956C93.8541 10.3446 93.8801 10.3192 93.9062 10.3192C93.9453 10.3192 93.9844 10.3446 94.0365 10.3446C94.0365 10.3446 94.5057 10.4466 94.7142 10.2172C94.8966 9.96245 95.0269 9.6567 95.1051 9.35094L96.1998 5.91123L96.2519 5.75835C96.2519 5.75835 96.6429 4.7137 95.887 4.43342L95.8349 4.40794C95.7828 4.38246 95.7567 4.35699 95.7828 4.30603L95.8349 4.17863C95.861 4.12767 95.887 4.10219 95.9392 4.12767L101.23 5.75835C101.282 5.78383 101.308 5.80931 101.308 5.86027M101.882 11.5677C101.621 12.2046 101.36 12.6633 102.116 13.02L102.22 13.0709C102.273 13.0964 102.273 13.1474 102.273 13.1729L102.22 13.3002C102.194 13.3512 102.142 13.3512 102.116 13.3512L100.031 12.5104C99.979 12.4849 99.979 12.4594 99.979 12.4085L100.031 12.2811C100.057 12.2301 100.083 12.2046 100.109 12.2301C100.161 12.2556 100.187 12.2556 100.24 12.2811C100.24 12.2811 100.683 12.4085 100.917 12.2046C101.126 11.9498 101.282 11.6696 101.386 11.3893L102.794 8.0515L102.872 7.89862C102.872 7.89862 103.367 6.90492 102.637 6.52273L102.585 6.49725C102.533 6.47177 102.533 6.42082 102.559 6.39534L102.611 6.26794C102.637 6.21698 102.69 6.21698 102.716 6.21698L104.592 6.98136C104.644 7.00684 104.67 7.03232 104.67 7.08328L105.504 13.1474C105.504 13.1729 105.504 13.1983 105.53 13.2238C105.53 13.2238 105.557 13.1983 105.557 13.1474L107.016 9.73313L107.094 9.58026C107.094 9.58026 107.589 8.56108 106.834 8.20437L106.729 8.15341C106.677 8.12793 106.677 8.07698 106.677 8.0515L106.729 7.9241C106.755 7.87314 106.808 7.87314 106.834 7.87314L108.919 8.71396C108.971 8.73944 108.971 8.7904 108.971 8.81588L108.919 8.94327C108.893 8.99423 108.867 9.01971 108.841 8.99423L108.71 8.94327C108.71 8.94327 108.267 8.81588 108.033 8.99423C107.824 9.24903 107.668 9.5293 107.563 9.83505L105.53 14.5997C105.504 14.6507 105.478 14.6507 105.426 14.6507L104.801 14.3959C104.749 14.3704 104.723 14.3449 104.723 14.2939L103.706 7.46547C103.706 7.43999 103.706 7.41451 103.68 7.38903C103.68 7.38903 103.654 7.41451 103.628 7.46547M114.574 13.6315C114.574 13.6824 114.522 13.7079 114.47 13.7079L114.288 13.6824C114.236 13.6824 114.21 13.6315 114.184 13.606C114.184 13.606 113.506 11.5931 112.359 10.9816C112.125 10.8542 111.707 10.6504 111.421 10.7014C111.134 10.7523 110.952 11.0071 110.821 11.2619L110.118 12.5359C110.092 12.5868 110.118 12.6378 110.144 12.6378L110.587 12.8671C110.639 12.8926 110.691 12.9181 110.743 12.9181C110.743 12.9181 111.838 13.2493 112.411 12.4339L112.646 12.5613C112.672 12.5868 112.698 12.6378 112.672 12.6633L111.29 15.1602C111.264 15.1857 111.212 15.2112 111.186 15.1857L111.03 15.1093C110.978 15.0838 110.978 15.0328 110.978 14.9819C111.082 14.7271 111.134 14.4468 111.134 14.1665C111.108 13.6824 110.769 13.5041 110.404 13.3002L109.909 13.0455C109.857 13.02 109.831 13.0455 109.805 13.0709L108.919 14.6761L108.841 14.829C108.736 15.0074 108.684 15.2367 108.658 15.4405C108.71 15.7972 109.127 16.0265 109.414 16.1794C110.769 16.8928 111.864 16.7654 113.245 16.103L113.402 16.3068C113.428 16.3323 113.428 16.3833 113.402 16.4087L111.681 17.7591C111.629 17.7846 111.577 17.7846 111.551 17.7591L106.599 15.1348C106.547 15.1093 106.547 15.0583 106.573 15.0328L106.651 14.9054C106.677 14.88 106.703 14.829 106.729 14.8545C106.782 14.88 106.808 14.88 106.86 14.9054C106.86 14.9054 107.277 15.1093 107.537 14.9054C107.772 14.6761 107.954 14.4213 108.085 14.1411L109.857 10.9561L109.935 10.8033C109.935 10.8033 110.535 9.86053 109.857 9.42738L109.805 9.4019C109.779 9.37642 109.753 9.32547 109.779 9.27451L109.857 9.14711C109.883 9.12163 109.935 9.09615 109.961 9.12163L114.809 11.695C114.861 11.7205 114.887 11.7715 114.861 11.8224M119.657 17.0202C119.631 17.0712 119.605 17.0967 119.553 17.0712L119.37 17.0202C119.318 17.0202 119.292 16.9693 119.292 16.9183C119.292 16.9183 119.109 14.9309 118.171 14.2939C117.65 13.9372 116.79 13.7589 116.373 14.3704C115.904 15.0328 116.529 15.6953 116.946 16.1539L117.598 16.8419L117.702 16.9693C117.702 16.9693 119.136 18.6 118.354 19.7465C117.52 20.9441 115.904 20.8421 114.835 20.1287C114.184 19.7211 113.714 19.1095 113.48 18.3961L113.089 18.6764C113.037 18.7019 112.985 18.7019 112.959 18.6764L112.802 18.549C112.776 18.5235 112.75 18.4726 112.75 18.4216L113.48 16.3323C113.506 16.2813 113.532 16.2559 113.584 16.2813L113.793 16.3323C113.845 16.3578 113.871 16.3833 113.871 16.4342C113.871 16.4342 113.949 18.9567 115.018 19.6446C115.747 20.1287 116.816 20.2306 117.363 19.4153C117.884 18.7019 117.337 18.1413 116.868 17.6063L116.164 16.8419L116.06 16.7145C115.747 16.3578 115.487 15.9501 115.252 15.5424C115.044 15.0583 115.096 14.4978 115.382 14.0646C115.721 13.606 116.216 13.3257 116.79 13.3002C117.363 13.3002 117.911 13.4786 118.38 13.8098C118.927 14.1411 119.344 14.6507 119.579 15.2622L119.813 15.0838C119.865 15.0583 119.891 15.0583 119.944 15.0838L120.1 15.1857C120.126 15.2112 120.152 15.2622 120.152 15.3131M34.6121 80.5658C34.6121 80.5149 34.586 80.4639 34.56 80.4384L33.9344 80.1072C33.8823 80.0817 33.8302 80.1072 33.8041 80.1327L30.3898 83.1138C29.9728 83.4959 29.5558 83.8526 29.1127 84.1839C28.826 84.3622 28.4611 84.4387 28.1223 84.3877C28.0702 84.3877 28.0441 84.3622 27.992 84.3622C27.9659 84.3622 27.9138 84.3877 27.9138 84.4132L27.8356 84.5406C27.8096 84.5661 27.8356 84.617 27.8617 84.6425L29.9468 85.7381C29.9728 85.7636 30.0249 85.7381 30.051 85.7126L30.1553 85.5088C29.7904 85.254 29.5037 84.9992 29.7382 84.5406C29.8946 84.3368 30.0771 84.1329 30.2595 83.9546L30.3898 83.8527L30.859 83.4195C30.885 83.394 30.9372 83.394 30.9893 83.394L32.9701 84.4387C33.0222 84.4642 33.0222 84.5151 33.0222 84.5661L32.8398 85.7126C32.8137 85.891 32.7616 86.0948 32.6834 86.2732C32.501 86.6299 31.8754 86.4006 31.8754 86.4006C31.8233 86.3751 31.7712 86.4006 31.7712 86.4515L31.693 86.5789C31.6669 86.6299 31.693 86.6554 31.7191 86.6809L33.9084 87.8274C33.9605 87.8529 33.9866 87.8274 34.0126 87.802L34.1169 87.5981C33.4914 87.2159 33.6478 86.6299 33.752 85.9674M31.3281 83.1138C31.3021 83.0883 31.3021 83.0628 31.3021 83.0373L31.3281 83.0118L33.5696 80.999C33.5956 80.9735 33.6217 80.9735 33.6217 81.0244L33.1265 83.98C33.1265 84.0055 33.1004 84.031 33.0744 84.031H33.0483L31.3281 83.1138ZM36.0195 87.0376C35.7328 87.6746 35.4722 88.1332 36.202 88.4644L36.3062 88.5154C36.3583 88.5409 36.3583 88.5918 36.3583 88.6173L36.3062 88.7447C36.2802 88.7956 36.2541 88.7956 36.202 88.7956L34.2472 87.9803C34.1951 87.9548 34.1951 87.9039 34.1951 87.8784L34.2472 87.751C34.2733 87.7 34.2993 87.6746 34.3254 87.7L34.4557 87.751C34.6642 87.8274 34.8988 87.7765 35.1073 87.6746C35.3158 87.4198 35.4722 87.165 35.5764 86.8592L37.036 83.5469L37.1142 83.394C37.1142 83.394 37.6094 82.4003 36.9317 82.0436L36.8796 82.0181C36.8275 81.9927 36.8275 81.9417 36.8275 81.9162L36.8796 81.7888C36.9057 81.7379 36.9578 81.7379 36.9839 81.7379L38.7562 82.4768C38.8083 82.5022 38.8344 82.5277 38.8344 82.5787L39.4599 88.5918C39.4599 88.6173 39.4599 88.6428 39.4859 88.6683C39.512 88.6428 39.512 88.6173 39.5381 88.5918L41.0237 85.2031L41.1019 85.0502C41.1019 85.0502 41.6231 84.031 40.8934 83.6743L40.7891 83.6233C40.737 83.5979 40.737 83.5469 40.737 83.5214L40.7891 83.394C40.8152 83.3431 40.8412 83.3431 40.8934 83.3431L42.8742 84.1584C42.9263 84.1839 42.9263 84.2348 42.9263 84.2603L42.8742 84.3877C42.8481 84.4387 42.8221 84.4642 42.796 84.4387L42.6657 84.3877C42.6657 84.3877 42.2487 84.2603 42.0141 84.4642C41.8056 84.7189 41.6492 84.9992 41.5449 85.305L39.4599 90.0696C39.4338 90.1206 39.3817 90.1206 39.3556 90.1206L38.7562 89.8658C38.704 89.8403 38.678 89.7893 38.678 89.7384L37.8961 82.9864C37.8961 82.9609 37.8961 82.9354 37.87 82.9099C37.87 82.9099 37.844 82.9354 37.844 82.9864M40.8152 90.6302C40.7891 90.6811 40.8152 90.7066 40.8673 90.7321L43.4476 91.5474C44.3859 91.8532 45.3502 92.1335 46.3406 91.7513C47.305 91.3436 48.0347 90.5282 48.3214 89.5346C48.6342 88.5409 48.5821 87.3433 48.0087 86.5025C47.4353 85.6617 45.663 85.0757 45.663 85.0757C45.6108 85.0502 45.5587 85.0247 45.5066 85.0247L43.0045 84.2348C42.9524 84.2094 42.9263 84.2348 42.9002 84.2858L42.8481 84.4132C42.8481 84.4641 42.8742 84.4896 42.9002 84.5151L42.9524 84.5406C43.6561 84.8463 43.2651 85.8655 43.2651 85.8655L43.213 86.0184L42.0923 89.4581C42.0141 89.7639 41.8838 90.0441 41.7013 90.2989C41.5189 90.4263 41.2843 90.4773 41.0497 90.4263L40.9455 90.4008C40.9194 90.4008 40.8934 90.4263 40.8673 90.4773M44.1513 86.1967C44.1513 86.1458 44.1773 86.0948 44.2034 86.0439C44.2816 85.8146 44.3859 85.6107 44.5422 85.4069C44.7768 85.2285 45.3763 85.3814 45.6108 85.4578C46.2885 85.6617 46.9661 86.0948 47.2789 86.7573C47.6177 87.4707 47.5135 88.3625 47.2789 89.1014C46.7055 90.885 45.4545 91.7258 43.7603 91.1907C43.5258 91.1143 43.0045 90.9359 42.8742 90.7066C42.7439 90.4773 42.8742 90.1206 42.9524 89.8913L44.1513 86.1967ZM55.2021 89.3052C55.2021 89.3562 55.1761 89.3817 55.124 89.4072L54.9676 89.4326C54.9154 89.4326 54.8633 89.4072 54.8373 89.3817C54.8373 89.3817 53.7165 87.6491 52.4916 87.3688C52.2309 87.3178 51.8139 87.2159 51.5533 87.3433C51.2926 87.4707 51.2145 87.751 51.1363 88.0567L50.7974 89.4836C50.7974 89.5346 50.8235 89.56 50.8496 89.5855L51.2926 89.6874C51.3448 89.6874 51.3969 89.7129 51.449 89.7129C51.449 89.7129 52.5176 89.7129 52.8564 88.7702L53.091 88.8211C53.1431 88.8211 53.1692 88.8721 53.1431 88.923L52.4916 91.6748C52.4916 91.7258 52.4394 91.7513 52.3873 91.7258L52.2309 91.7003C52.1788 91.7003 52.1527 91.6493 52.1527 91.5984C52.1788 91.3181 52.1788 91.0378 52.1006 90.783C51.9442 90.3499 51.6054 90.248 51.2145 90.1461L50.6932 90.0187C50.6411 90.0187 50.615 90.0441 50.5889 90.0951L50.1719 91.8787C50.1719 91.9296 50.1459 92.0061 50.1459 92.0315C50.0937 92.2354 50.0937 92.4647 50.1459 92.6685C50.2762 92.9743 50.7192 93.1017 51.0059 93.1781C52.4134 93.5093 53.4038 93.0762 54.4984 92.0825L54.7069 92.2354C54.733 92.2608 54.7591 92.3118 54.733 92.3628L53.508 94.1208C53.482 94.1463 53.4298 94.1718 53.3777 94.1718L48.1911 92.9997C48.139 92.9997 48.1129 92.9488 48.139 92.8978L48.165 92.7704C48.165 92.7195 48.2172 92.694 48.2432 92.694L48.3735 92.7195C48.3735 92.7195 48.8166 92.7959 48.9991 92.5411C49.1554 92.2608 49.2597 91.9551 49.3118 91.6493L50.1459 88.1332C50.1459 88.0822 50.1719 88.0313 50.198 87.9803C50.198 87.9803 50.5107 86.9102 49.781 86.6809L49.7288 86.6554C49.6767 86.6299 49.6507 86.6044 49.6767 86.5535L49.7028 86.4261C49.7288 86.3751 49.7549 86.3496 49.807 86.3751L54.9154 87.5217C54.9676 87.5217 54.9936 87.5726 54.9936 87.6236M59.7632 95.0891C59.7372 95.14 59.685 95.1655 59.6329 95.14L54.9676 94.4266C54.9154 94.4266 54.8894 94.3756 54.8894 94.3247L54.9154 94.1973C54.9154 94.1463 54.9415 94.1208 54.9676 94.1208H55.0979C55.0979 94.1208 55.5149 94.1463 55.6973 93.8915C55.8277 93.6113 55.9059 93.3055 55.9319 92.9997L56.5053 89.4326C56.5053 89.3817 56.5314 89.3052 56.5314 89.2798C56.5314 89.2798 56.7659 88.1841 56.0362 88.0058H56.0101C55.958 88.0058 55.9319 87.9548 55.9319 87.9039L55.958 87.7765C55.958 87.7255 56.0101 87.7 56.0622 87.7L58.5383 88.0822C58.5904 88.0822 58.6164 88.1332 58.6164 88.1841L58.5904 88.3115C58.5904 88.3625 58.5643 88.388 58.5122 88.388H58.3558C58.3558 88.388 57.8867 88.3625 57.7042 88.6173C57.5512 88.9013 57.4623 89.2141 57.4436 89.5346L56.8441 93.3055C56.8441 93.3565 56.8181 93.4329 56.8181 93.4584C56.792 93.6622 56.792 93.8661 56.8181 94.0699C56.8963 94.3247 57.2612 94.4266 57.4957 94.4521C58.7207 94.6304 59.7632 93.9425 60.5451 92.9997L60.7276 93.1271C60.7536 93.1526 60.7797 93.2036 60.7536 93.2545M66.2269 90.6556C66.2269 90.7066 66.2009 90.7576 66.1748 90.7576L66.0184 90.8085C65.9663 90.834 65.9142 90.8085 65.8881 90.7576C65.8881 90.7576 64.7935 89.1014 63.7249 89.025C63.1254 88.974 62.3174 89.2288 62.2653 89.9677C62.1871 90.7576 63.0211 91.0378 63.5685 91.2417L64.4286 91.5474L64.5849 91.5984C64.5849 91.5984 66.5397 92.3373 66.4354 93.6877C66.3051 95.14 64.9238 95.8025 63.6988 95.7006C62.969 95.6496 62.2653 95.3438 61.744 94.8597L61.5616 95.2674C61.5355 95.3184 61.4834 95.3439 61.4313 95.3439L61.2488 95.3184C61.1967 95.3184 61.1707 95.2674 61.1446 95.2419L60.7797 93.0762C60.7797 93.0252 60.8058 92.9743 60.8579 92.9743L61.0664 92.9233C61.1185 92.9233 61.1707 92.9233 61.1967 92.9743C61.1967 92.9743 62.4478 95.1145 63.6727 95.2165C64.5068 95.2929 65.445 94.8597 65.5232 93.8915C65.6014 92.9997 64.8977 92.7959 64.2461 92.5666L63.3078 92.2354L63.1515 92.1844C62.7345 92.0315 62.3174 91.8022 61.9265 91.5474C61.7253 91.384 61.5661 91.1767 61.462 90.9421C61.3579 90.7075 61.3116 90.4523 61.327 90.197C61.3516 89.9276 61.4367 89.6669 61.5764 89.4334C61.7161 89.1999 61.9068 88.9996 62.135 88.8466C62.6041 88.5663 63.1515 88.4644 63.6988 88.5154C64.3243 88.5409 64.8977 88.7957 65.3669 89.2033L65.4711 88.923C65.4972 88.8721 65.5232 88.8466 65.5754 88.8466L65.7578 88.8721C65.8099 88.8721 65.836 88.923 65.8621 88.9485M72.2997 94.3756C72.6646 95.0126 72.9252 95.4713 73.655 95.5986V95.828C73.655 95.8789 73.6289 95.9044 73.5768 95.9044L70.8662 95.8534C70.8141 95.8534 70.788 95.8025 70.788 95.777V95.6496C70.788 95.5986 70.8141 95.5732 70.8662 95.5732H71.0226C71.0226 95.5732 71.4917 95.5222 71.5178 95.1655C71.4917 94.9362 71.3875 94.7069 71.2572 94.503L69.9279 92.0825C69.9019 92.057 69.8758 92.0315 69.8497 92.057C69.8497 92.057 69.8237 92.057 69.8237 92.0825L68.7811 93.0507C68.7551 93.1017 68.729 93.1271 68.729 93.1781L68.703 94.2228V94.3756C68.6769 94.6559 68.703 94.9362 68.7811 95.2165C68.9115 95.5222 69.1982 95.5477 69.4849 95.5732H69.5891C69.6412 95.5732 69.6673 95.6241 69.6673 95.6496V95.8025C69.6673 95.8534 69.6152 95.8789 69.5891 95.8789L66.9828 95.828C66.9307 95.828 66.9046 95.8025 66.9046 95.7515V95.6241C66.9046 95.5732 66.9306 95.5477 66.9567 95.5477H67.087C67.087 95.5477 67.5301 95.5222 67.6604 95.2419C67.7647 94.9362 67.7907 94.6304 67.7647 94.2992L67.8429 90.6811V90.5282C67.8429 90.5282 67.9211 89.4326 67.1652 89.3562H67.1131C67.061 89.3562 67.0349 89.3052 67.0349 89.2798V89.1524C67.0349 89.1014 67.061 89.0759 67.1131 89.0759L69.7194 89.1269C69.7716 89.1269 69.7976 89.1524 69.7976 89.2033V89.3307C69.7976 89.3817 69.7716 89.4072 69.7194 89.4072H69.537C69.537 89.4072 69.0678 89.4326 68.9115 89.7129C68.8072 90.0187 68.7812 90.3244 68.8072 90.6556L68.7811 92.4137C68.7811 92.4647 68.8072 92.4647 68.8333 92.4392L71.0226 90.4008L71.1529 90.2735C71.2572 90.1715 71.3354 90.0187 71.3614 89.8658C71.3614 89.4836 71.0487 89.4581 70.7359 89.4072V89.1778C70.7359 89.1269 70.762 89.1014 70.8141 89.1014L73.2901 89.1524C73.3422 89.1524 73.3683 89.1778 73.3683 89.2288V89.3562C73.3683 89.4072 73.3422 89.4581 73.2901 89.4581C73.264 89.4836 73.1859 89.5091 73.1337 89.5091C72.6385 89.7639 72.1694 90.0696 71.7263 90.4263L70.7359 91.3181C70.7098 91.3436 70.6838 91.3945 70.7098 91.4455M76.9129 88.7447C75.0103 88.8466 73.6289 90.4773 73.7332 92.5156C73.8374 94.503 75.4012 95.9808 77.2778 95.8789C79.1544 95.777 80.5618 94.1973 80.4315 92.1844C80.3272 90.1206 78.8677 88.6173 76.9129 88.7447ZM76.9129 89.2543C78.4246 89.1269 79.2326 90.5283 79.3368 92.2863C79.415 93.7641 78.8677 95.2929 77.2778 95.3948C75.6879 95.4967 74.9582 93.968 74.8539 92.4902C74.7497 90.6047 75.4534 89.3817 76.9129 89.2543ZM85.1489 94.9617C85.0968 94.9617 85.0447 94.9362 85.0186 94.9107L81.9953 89.1524C81.9692 89.1014 81.9692 89.0759 81.9431 89.0759V89.1524L82.6208 93.6622C82.6208 93.7132 82.6469 93.7896 82.6469 93.8151C82.699 94.0954 82.7772 94.3502 82.8814 94.6049C83.0639 94.8852 83.3506 94.8852 83.6373 94.8597H83.7155C83.7676 94.8597 83.7936 94.8852 83.7936 94.9362L83.8197 95.0636C83.8197 95.1145 83.7936 95.14 83.7676 95.1655L81.5783 95.4713C81.5261 95.4713 81.5001 95.4458 81.474 95.4203L81.4479 95.2929C81.4479 95.2419 81.4479 95.2165 81.474 95.2165L81.6043 95.191C81.6043 95.191 82.0474 95.0891 82.1516 94.7833C82.2038 94.4776 82.1777 94.1463 82.1256 93.8406L81.5783 90.2735C81.5783 90.2225 81.5522 90.1461 81.5522 90.1206C81.5522 90.1206 81.4479 88.9995 80.666 89.0759H80.5878C80.5357 89.0759 80.5097 89.0504 80.4836 88.9995L80.4575 88.8721C80.4575 88.8211 80.4836 88.7956 80.5097 88.7702L82.5687 88.4644C82.6208 88.4644 82.6729 88.4899 82.699 88.5154L85.175 93.2036C85.2011 93.2545 85.2271 93.2291 85.2271 93.2036L86.4 87.9803C86.4 87.9293 86.4521 87.9039 86.5042 87.9039L88.459 87.6236C88.5111 87.6236 88.5372 87.6491 88.5632 87.7L88.5893 87.8274C88.5893 87.8784 88.5893 87.9039 88.5632 87.9039L88.4329 87.9294C88.4329 87.9294 88.0159 88.0313 87.9116 88.337C87.8595 88.6428 87.8595 88.974 87.9377 89.2798L88.485 92.8469C88.485 92.8978 88.485 92.9743 88.5111 92.9997C88.5111 92.9997 88.6154 94.0954 89.3973 94.0699H89.4494C89.5015 94.0699 89.5276 94.0954 89.5536 94.1463L89.5797 94.2737C89.5797 94.3247 89.5536 94.3502 89.5015 94.3756L87.0776 94.7323C87.0255 94.7323 86.9994 94.7069 86.9734 94.6559L86.9473 94.5285C86.9473 94.4776 86.9473 94.4521 86.9734 94.4521L87.1037 94.4266C87.1037 94.4266 87.5207 94.3247 87.5989 94.0444C87.651 93.7386 87.625 93.4074 87.5728 93.1017L86.9212 88.6937C86.9212 88.6683 86.8952 88.6428 86.8952 88.6173C86.8952 88.6428 86.8691 88.6683 86.8691 88.6937L85.4878 94.9107C85.4878 94.9617 85.4356 94.9871 85.3835 94.9871M91.2999 90.9104C91.2999 90.8595 91.2999 90.834 91.352 90.8085L92.5249 90.5282C93.0983 90.4008 93.7238 90.1715 94.0887 89.7129C94.4275 89.2543 94.5578 88.6683 94.4014 88.1077C94.2711 87.4962 93.828 87.0121 93.2546 86.8083C92.7073 86.6299 91.7169 86.8083 91.7169 86.8083L91.5605 86.8337L88.7196 87.4707C88.6675 87.4707 88.6414 87.5217 88.6675 87.5726L88.6935 87.7C88.6935 87.751 88.7457 87.7765 88.7978 87.7765H88.8499C89.6058 87.6746 89.7882 88.7702 89.7882 88.7702C89.7882 88.8211 89.8143 88.8721 89.8143 88.923L90.6483 92.4392C90.7525 92.7449 90.7786 93.0507 90.7786 93.3819C90.7265 93.6622 90.3095 93.8151 90.3095 93.8151L90.1792 93.866C90.1531 93.866 90.1531 93.917 90.1531 93.968L90.1792 94.0954C90.1792 94.1463 90.2313 94.1718 90.2834 94.1463L92.8116 93.5603C92.8637 93.5603 92.8897 93.5093 92.8637 93.4584L92.8376 93.331C92.8116 93.28 92.7855 93.2545 92.7334 93.2545L92.6291 93.28C92.3685 93.331 92.0557 93.3565 91.8472 93.1017C91.6908 92.8214 91.6126 92.5411 91.5605 92.2354M91.2478 90.4773C91.1956 90.4773 91.1696 90.4518 91.1435 90.4263L90.6222 88.2861C90.5962 88.1077 90.4919 87.802 90.6222 87.6746C90.7786 87.4707 91.3781 87.3178 91.6126 87.2669C92.5249 87.114 93.3849 87.7 93.5413 88.5663C93.5935 88.923 93.5413 89.2798 93.3849 89.5855C93.1504 90.0441 92.7594 90.1715 92.2903 90.2735L91.2478 90.4773ZM97.1902 85.4069C97.1641 85.3814 97.112 85.3559 97.0599 85.3559L96.3822 85.5598C96.3301 85.5852 96.304 85.6107 96.304 85.6617L96.0955 90.1461C96.0955 90.7066 96.0434 91.2417 95.9652 91.7767C95.887 92.108 95.6785 92.3882 95.4179 92.6176C95.3918 92.643 95.3397 92.6685 95.3136 92.694C95.2876 92.7195 95.2876 92.7704 95.2876 92.7959L95.3397 92.9233C95.3658 92.9743 95.3918 92.9997 95.444 92.9743L97.6854 92.2863C97.7375 92.2863 97.7636 92.2354 97.7375 92.1844L97.6854 91.9806C97.2423 92.057 96.8514 92.0825 96.695 91.5984C96.6429 91.3436 96.6429 91.0888 96.6429 90.834V90.6811L96.6689 90.0441C96.6689 89.9932 96.695 89.9677 96.7471 89.9422L98.9104 89.2798C98.9625 89.2543 99.0146 89.2798 99.0407 89.3307L99.7444 90.2735C99.8747 90.4263 99.979 90.5792 100.057 90.7576C100.187 91.1398 99.588 91.42 99.588 91.42C99.5359 91.4455 99.5359 91.4965 99.5359 91.5219L99.588 91.6493C99.6141 91.7003 99.6402 91.7258 99.6923 91.7003L102.064 90.9869C102.116 90.9869 102.142 90.9359 102.116 90.885L102.038 90.6811C101.308 90.8595 100.995 90.3244 100.578 89.7893M96.7471 89.4836C96.7211 89.4836 96.695 89.4836 96.6689 89.4581V89.4326L96.7732 86.4515C96.7732 86.4006 96.7992 86.4006 96.8253 86.4261L98.6497 88.8211C98.6758 88.8466 98.6758 88.8721 98.6497 88.8976C98.6497 88.8976 98.6237 88.8976 98.6237 88.923L96.7471 89.4836ZM106.13 84.2094C106.156 84.2348 106.156 84.2858 106.13 84.3368L105.974 84.4642C105.921 84.4896 105.869 84.4896 105.843 84.4642C105.843 84.4642 103.915 83.2411 102.872 83.6488C101.465 84.2094 101.621 86.0184 102.142 87.2414C102.403 87.9039 102.82 88.4899 103.367 88.9485C103.646 89.1735 103.981 89.3225 104.338 89.3807C104.695 89.4389 105.061 89.404 105.4 89.2798C106.26 88.9485 106.938 88.0822 106.521 87.0376C106.26 86.4006 105.895 86.3242 105.296 86.477L105.218 86.2732C105.192 86.2222 105.218 86.1968 105.27 86.1713L107.511 85.2795C107.563 85.254 107.589 85.2795 107.616 85.3305L107.668 85.4578C107.694 85.5088 107.694 85.5343 107.668 85.5598L107.563 85.6107C107.563 85.6107 107.199 85.8146 107.172 86.0948C107.199 86.4006 107.303 86.7063 107.433 87.0121L108.059 88.4899C108.085 88.5409 108.059 88.5918 108.006 88.5918L107.746 88.6937C107.694 88.7192 107.642 88.6937 107.616 88.6683L107.199 88.2606C107.172 88.2351 107.146 88.2351 107.094 88.2606C107.094 88.2606 106.234 89.4836 105.53 89.7639C103.758 90.4773 101.882 89.5091 101.1 87.6491C100.735 86.8592 100.657 85.942 100.891 85.1011C101.152 84.2603 101.777 83.5469 102.585 83.1902C103.211 82.9609 103.915 82.9099 104.566 83.1138L104.54 82.6806C104.54 82.6296 104.566 82.5787 104.618 82.5787L104.723 82.5277C104.775 82.5022 104.827 82.5277 104.853 82.5532M109.909 85.9674C110.248 86.5789 110.43 87.063 111.16 86.7318L111.264 86.6809C111.317 86.6554 111.369 86.6809 111.395 86.7318L111.473 86.8592C111.499 86.9102 111.473 86.9357 111.447 86.9611L109.57 87.9294C109.518 87.9548 109.466 87.9294 109.44 87.9039L109.362 87.7765C109.336 87.7255 109.336 87.7 109.362 87.6746L109.492 87.6236C109.492 87.6236 109.857 87.3688 109.831 87.0885C109.753 86.7828 109.648 86.477 109.466 86.2222L107.72 83.0373L107.642 82.8844C107.642 82.8844 107.146 81.8653 106.469 82.171L106.417 82.1965C106.364 82.222 106.312 82.1965 106.312 82.1455L106.234 82.0181C106.208 81.9927 106.208 81.9417 106.26 81.9162H106.286L107.98 81.0244C108.033 80.999 108.085 80.999 108.137 81.0244L113.323 84.3113C113.349 84.3368 113.376 84.3368 113.402 84.3622C113.402 84.3622 113.402 84.3368 113.376 84.2858L111.551 81.0244L111.473 80.8716C111.473 80.8716 110.978 79.8524 110.248 80.1581L110.144 80.2091C110.092 80.2346 110.039 80.2091 110.039 80.1836L109.961 80.0562C109.935 80.0307 109.961 79.9798 109.987 79.9543L111.89 78.9606C111.942 78.9351 111.968 78.9606 111.994 78.9861L112.072 79.1135C112.098 79.1644 112.098 79.1899 112.072 79.2154L111.968 79.2918C111.968 79.2918 111.603 79.5211 111.603 79.8269C111.681 80.1327 111.812 80.4384 111.968 80.6932L114.47 85.254C114.496 85.305 114.47 85.3305 114.444 85.3559L113.871 85.6617C113.819 85.6872 113.766 85.6872 113.74 85.6617L107.85 81.9927C107.824 81.9672 107.798 81.9672 107.772 81.9417C107.772 81.9672 107.798 81.9927 107.798 82.0181M113.532 79.725C113.167 79.1644 112.906 78.7058 112.255 79.037L112.229 79.0625C112.203 79.088 112.151 79.088 112.125 79.037L112.046 78.9097C112.02 78.8587 112.046 78.8332 112.072 78.8077L114.079 77.5592C114.105 77.5338 114.157 77.5592 114.184 77.5847L114.262 77.7121C114.288 77.7376 114.288 77.7886 114.262 77.814C114.236 77.8395 114.21 77.8905 114.184 77.916C114.184 77.916 113.949 78.7058 114.314 79.2664L116.295 82.3239C116.321 82.3748 116.347 82.4258 116.373 82.4513C116.373 82.4513 116.92 83.4195 117.572 83.0883L117.624 83.0628C117.676 83.0373 117.702 83.0628 117.754 83.0883L117.832 83.2157C117.858 83.2411 117.858 83.2921 117.806 83.3176L115.799 84.5661C115.773 84.5916 115.721 84.5661 115.695 84.5406L115.617 84.4132C115.591 84.3877 115.591 84.3368 115.643 84.3113C115.669 84.2858 115.695 84.2348 115.721 84.1839L115.617 82.9354L115.513 82.808M120.282 75.2151C120.308 75.2406 120.334 75.2916 120.308 75.3425L120.23 75.4699C120.204 75.5209 120.152 75.5209 120.1 75.5209C120.1 75.5209 118.015 75.2406 117.024 75.9795C116.816 76.1324 116.477 76.4127 116.399 76.6675C116.321 76.9223 116.503 77.2025 116.686 77.4318L117.598 78.6039C117.624 78.6294 117.676 78.6549 117.702 78.6294L118.067 78.3491C118.119 78.3236 118.145 78.2727 118.197 78.2472C118.197 78.2472 118.901 77.4573 118.38 76.591L118.562 76.4636C118.588 76.4381 118.64 76.4382 118.666 76.4891L120.413 78.7313C120.439 78.7568 120.439 78.8077 120.387 78.8332L120.256 78.9351C120.23 78.9606 120.178 78.9606 120.126 78.9351C119.917 78.7313 119.709 78.5784 119.448 78.451C119.005 78.2727 118.719 78.4765 118.38 78.7058L117.963 79.0116C117.937 79.037 117.911 79.088 117.937 79.1135L119.057 80.5658L119.162 80.6932C119.292 80.8716 119.474 80.999 119.657 81.1009C119.996 81.2028 120.361 80.948 120.595 80.7696C121.768 79.9288 122.055 78.9097 121.976 77.4318L122.237 77.3809C122.289 77.3809 122.315 77.4064 122.341 77.4318L122.941 79.4702C122.941 79.5212 122.941 79.5721 122.889 79.5976L118.692 82.808C118.666 82.8335 118.614 82.8335 118.588 82.808L118.51 82.7061C118.484 82.6551 118.484 82.6296 118.484 82.6042L118.588 82.5277C118.588 82.5277 118.927 82.2475 118.849 81.9417C118.745 81.6359 118.562 81.3811 118.354 81.1518L116.112 78.2727L116.008 78.1453C116.008 78.1453 115.382 77.228 114.705 77.6357L114.653 77.6612C114.601 77.6866 114.548 77.6866 114.522 77.6357L114.444 77.5338C114.418 77.5083 114.418 77.4573 114.47 77.4064L118.64 74.3234C118.692 74.2979 118.745 74.2979 118.771 74.3234M25.933 76.2598C26.1415 75.6228 24.5256 74.5272 23.6134 74.5527C22.8054 74.6291 21.9714 75.0623 21.8411 75.7502C21.7368 76.3617 22.0235 76.9987 22.623 77.1006C23.2485 77.228 23.7437 75.6992 24.2128 76.7949C24.3692 77.2025 23.7958 77.7121 23.3006 77.7886C22.4145 77.916 21.5544 77.3809 21.2937 76.5401C21.1113 75.6992 21.3459 74.9858 22.0235 74.5527C23.5873 73.5845 24.682 74.2469 25.8809 75.0623L27.9399 76.4381C27.9659 76.4636 27.992 76.5146 27.9659 76.5401L27.8878 76.642C27.8617 76.6675 27.8096 76.6929 27.8096 76.6675L27.7053 76.591C27.7053 76.591 27.3144 76.3617 27.0277 76.5401C26.767 76.7439 26.5585 76.9732 26.4021 77.2535L25.6463 78.3236C25.6202 78.3491 25.6202 78.4001 25.6724 78.4255L28.3308 80.2091C28.3569 80.2346 28.409 80.2346 28.4351 80.1836L29.1388 79.1899C29.1649 79.139 29.217 79.088 29.243 79.0625C29.2691 79.037 29.9468 78.1707 29.3473 77.6866L29.2952 77.6612C29.2691 77.6357 29.243 77.5847 29.2691 77.5338L29.3473 77.4064C29.3734 77.3809 29.4255 77.3554 29.4516 77.3809L31.4845 78.7568C31.5106 78.7823 31.5366 78.8332 31.5106 78.8587L31.4324 78.9861C31.4063 79.0116 31.3802 79.037 31.3542 79.037C31.3281 79.0116 31.276 78.9861 31.2499 78.9606C31.2499 78.9606 30.859 78.7568 30.5983 78.9097C30.3377 79.1135 30.1292 79.3428 29.9728 79.6231L27.8617 82.6042L27.7574 82.7316C27.7574 82.7316 27.0537 83.6233 27.6532 84.082L27.7053 84.1074C27.7314 84.1329 27.7574 84.1839 27.7314 84.2348L27.6532 84.3622C27.6271 84.3877 27.575 84.4132 27.5489 84.3877L25.516 83.0118C25.4899 82.9864 25.4639 82.9354 25.4899 82.9099L25.5681 82.7825C25.5942 82.757 25.6463 82.7316 25.6463 82.7316C25.6724 82.757 25.7245 82.7825 25.7506 82.808C25.9591 82.9099 26.1936 82.9354 26.4021 82.859C26.6628 82.6551 26.8713 82.4258 27.0277 82.1455L28.0702 80.6677C28.0963 80.6423 28.0963 80.5913 28.0441 80.5658L25.3857 78.7823C25.3596 78.7568 25.3075 78.7568 25.2814 78.8077L24.2649 80.2346L24.1607 80.362C24.1346 80.3875 23.483 81.2538 24.0825 81.7124L24.1346 81.7633C24.1607 81.7888 24.1868 81.8398 24.1607 81.8907L24.0825 81.9927C24.0564 82.0181 24.0043 82.0436 23.9783 82.0181L21.9453 80.6423C21.9192 80.6168 21.8932 80.5658 21.9192 80.5403L21.9974 80.4129C22.0235 80.3875 22.0756 80.362 22.0756 80.362L22.1799 80.4384C22.3884 80.5403 22.623 80.5658 22.8315 80.4894C23.066 80.311 23.2485 80.0817 23.4049 79.8524C23.4309 79.8014 23.483 79.7505 23.5091 79.725L25.6202 76.7439C25.7506 76.6165 25.8548 76.4381 25.933 76.2598ZM65.7317 39.3657L67.0088 36.5374L68.2859 39.3657M64.0637 42.7289H64.1679L64.2201 42.627L65.1583 40.6141H68.8593L69.7976 42.627L69.8497 42.7289H71.3614L71.2572 42.4996L67.1913 33.7857L67.0349 33.4544L66.8785 33.7857L62.8126 42.4996L62.7084 42.7289H64.0637ZM75.9225 42.7289H76.0789V41.455H73.4725V34.0405H72.0651V42.7289H72.2215M80.7442 42.7289H80.9006V41.455H78.2943V34.0405H76.8869V42.7289H77.0432M48.7645 54.959C46.9661 54.959 45.5066 53.5067 45.5066 51.7486C45.4545 49.9906 46.8619 48.5382 48.6602 48.4873C50.4586 48.4363 51.9442 49.8122 51.9964 51.5703V51.7486C52.0224 53.5067 50.5629 54.9336 48.7645 54.959ZM53.4038 51.7232C53.4038 49.2262 51.3187 47.1878 48.7645 47.1878C46.2103 47.1878 44.1252 49.2262 44.1252 51.7232C44.1252 54.2201 46.2103 56.2585 48.7645 56.2585C51.3187 56.2585 53.4038 54.2456 53.4038 51.7232ZM57.3915 56.4114L57.5478 56.7681L57.7042 56.4114L61.4052 47.621L61.5095 47.3917H59.9717L59.9196 47.4936L57.5218 53.3029L55.124 47.4936L55.0979 47.3917H53.5602L53.6644 47.621M67.0349 56.0801H67.1913V54.8062H63.6727V51.9779H67.087V50.704H63.6727V48.6656H67.1913V47.3917H62.2653V56.0801H62.4217M70.1625 48.6401C71.6481 48.6401 72.3258 49.0478 72.3258 49.9651C72.3258 50.8823 71.7002 51.341 70.2146 51.341H70.0322V48.6401M74.4369 56.0546L74.2545 55.7999L71.7002 52.3601C72.8731 52.1053 73.6811 51.0607 73.6289 49.9141C73.6289 49.0478 73.1859 48.2325 72.43 47.7738C71.7002 47.3662 70.8141 47.3662 70.0843 47.3662H68.6248V56.0546H70.0322V52.513H70.2146L72.6907 55.9782L72.7428 56.0546H74.4369ZM79.9363 47.3917H79.7799V48.6656H81.8128V56.0546H83.2202V48.6656H85.2532V47.3917H85.0968M91.4041 47.3917H91.2478V50.7549H87.4946V47.3917H86.1133V56.0801H87.4946V52.0799H91.2478V56.0801H92.6552V47.3917H92.4988M99.0668 47.3917H94.3232V56.0801H99.2492V54.8062H95.7307V51.9779H99.145V50.704H95.7307V48.6656H99.2492V47.3917M61.9786 60.7429H61.8744L61.8483 60.8448L59.6068 66.4502L57.3393 60.6664L57.183 60.2842L57.0266 60.6664L54.7591 66.4502L52.5176 60.8448L52.4655 60.7429H50.9538L51.0581 60.9722L54.6027 69.6606L54.7591 70.0428L54.9154 69.6606L57.183 63.9278L59.4505 69.6606L59.6068 70.0428L59.7632 69.6606L63.3078 60.9722L63.4121 60.7429H63.1775M68.1556 68.2848C67.7278 68.2814 67.3048 68.1957 66.9108 68.0326C66.5169 67.8694 66.1596 67.632 65.8595 67.3339C65.5594 67.0358 65.3223 66.6828 65.1618 66.2951C65.0012 65.9074 64.9203 65.4926 64.9238 65.0743C64.9238 64.2297 65.267 63.4196 65.878 62.8223C66.489 62.225 67.3176 61.8894 68.1817 61.8894C69.0457 61.8894 69.8744 62.225 70.4854 62.8223C71.0964 63.4196 71.4396 64.2297 71.4396 65.0743C71.4396 66.8324 69.9801 68.2848 68.1556 68.2848ZM68.1817 60.539C65.6275 60.539 63.5424 62.5519 63.5424 65.0743C63.5216 65.6827 63.6261 66.289 63.8499 66.8571C64.0736 67.4251 64.412 67.9434 64.8448 68.3809C65.2777 68.8185 65.7962 69.1665 66.3695 69.4042C66.9427 69.6418 67.559 69.7643 68.1817 69.7643C68.8044 69.7643 69.4207 69.6418 69.9939 69.4042C70.5672 69.1665 71.0857 68.8185 71.5185 68.3809C71.9514 67.9434 72.2898 67.4251 72.5135 66.8571C72.7373 66.289 72.8418 65.6827 72.821 65.0743C72.821 62.5774 70.7359 60.539 68.1817 60.539ZM75.4534 61.9913C76.939 61.9913 77.6166 62.399 77.6166 63.3163C77.6166 64.2335 76.9911 64.6922 75.5055 64.6922H75.3231V61.9913M77.0172 65.7368C78.19 65.482 78.998 64.4628 78.9459 63.2908C78.9459 62.4245 78.5028 61.6092 77.7469 61.1505C77.0172 60.7429 76.131 60.7429 75.4012 60.7429H73.9417V69.4313H75.3491V65.8897H75.5316L78.0076 69.3549L78.0597 69.4313H79.7799L79.5714 69.1765L77.0172 65.7368ZM81.9692 68.1319V60.7174H80.5878V69.4058H84.5755V68.1319H84.4192M86.8952 68.1319H86.6867V62.0168H86.8952C88.6675 62.0168 90.8047 62.5519 90.8047 65.0743C90.8047 67.5968 88.6675 68.1319 86.8952 68.1319ZM87.234 60.7429H85.3053V69.4313H87.2079C90.2834 69.4313 92.2121 67.7497 92.2121 65.0489C92.186 62.4245 90.2313 60.7429 87.234 60.7429Z" fill="#FFFEF8"/>
</svg>
