<svg width="14" height="14" viewBox="0 0 14 14" fill="none" xmlns="http://www.w3.org/2000/svg">
<g clip-path="url(#clip0_97_918)">
<path d="M5.642 0.155187C5.18652 0.245165 4.75065 0.415342 4.3547 0.657787C4.2693 0.708887 3.7457 1.17859 3.5833 1.34029C3.4461 1.48589 3.3348 1.64829 3.2144 1.80999C3.08113 1.99022 2.96356 2.18156 2.863 2.38189C2.6831 2.76619 2.597 3.20089 2.5116 3.61949C2.4948 3.71329 2.4773 3.79869 2.4605 3.88409C2.44441 4.01154 2.44136 4.14031 2.4514 4.26839C2.4514 4.46439 2.4864 4.65269 2.5284 4.84869C2.5718 5.07059 2.6404 5.29249 2.7342 5.50599C2.8203 5.71109 2.8805 5.85599 3.0002 6.04359C3.1458 6.25709 3.2914 6.38519 3.472 6.56439C3.6092 6.70089 3.815 6.84579 3.969 6.96549C4.1321 7.07679 4.4065 7.17059 4.5864 7.24689C4.2175 7.38409 3.7548 7.66549 3.4202 7.86149C3.24254 7.9658 3.07078 8.07984 2.9057 8.20309C2.70284 8.36052 2.51106 8.53173 2.3317 8.71549C1.7402 9.29579 1.26 9.98669 1.0031 10.7637C0.926097 10.9947 0.856797 11.2159 0.788197 11.4469C0.729938 11.6284 0.684099 11.8136 0.650997 12.0013C0.608997 12.2323 0.582397 12.4626 0.582397 12.7013C0.582397 12.8637 0.582397 13.017 0.599897 13.1794C0.599897 13.2389 0.599897 13.2984 0.608297 13.3502C0.634197 13.5378 0.702797 13.6918 0.848397 13.8192C1.0626 14.0152 1.3629 13.9991 1.6289 13.9991C1.8256 13.9991 3.3257 13.9137 3.7121 13.9221H6.0781C6.258 13.9221 8.5897 13.871 8.9495 13.8535C9.3275 13.8367 10.4412 13.8535 10.8185 13.8367C10.8703 13.8367 12.1814 13.8024 12.7386 13.7597C12.8506 13.7597 12.9703 13.7338 13.0732 13.7002C13.1586 13.6652 13.2706 13.6064 13.3133 13.5294C13.3735 13.444 13.4078 13.3929 13.4162 13.29V13.1199C13.4162 13.017 13.3903 12.9239 13.3735 12.8294C13.3644 12.7699 13.3476 12.7181 13.3385 12.6754V12.6418C13.3133 12.5305 13.2874 12.4283 13.2615 12.317L13.1586 11.9159C13.0925 11.5988 13.0096 11.2854 12.9101 10.9772C12.7768 10.5896 12.6076 10.2154 12.4047 9.85929C12.0986 9.34159 11.7237 8.8678 11.2903 8.45089C11.1615 8.32279 11.0243 8.21149 10.8871 8.09249C10.2956 7.58849 9.3695 7.17899 8.5813 7.05089C8.8298 6.88009 9.1469 6.65819 9.3695 6.44469C9.5928 6.24029 9.7559 5.98409 9.9183 5.73629C10.0723 5.49759 10.1843 5.33519 10.2781 5.06219C10.3474 4.85709 10.4328 4.60089 10.4671 4.38809C10.4755 4.31109 10.5014 4.16619 10.5098 4.08009C10.5098 3.95269 10.5182 3.79029 10.5098 3.65309C10.493 3.24429 10.2186 2.39869 9.9267 1.88699C9.6698 1.43479 9.1553 0.802687 8.8039 0.572387C8.33148 0.275357 7.79814 0.0887249 7.2436 0.0263867C6.6787 -0.0331133 6.174 0.00958673 5.6329 0.120887L5.642 0.155187ZM3.6687 2.57929C3.8059 2.30629 4.1748 1.76799 4.4149 1.56289C4.655 1.35779 5.4859 0.897887 5.915 0.846087C6.3434 0.794987 7.0294 0.727087 7.6125 0.923087C8.0409 1.05959 8.4525 1.41799 8.6667 1.63149C8.9068 1.87019 9.3352 2.57929 9.4129 2.77529C9.4899 2.98039 9.6439 3.50959 9.6439 4.02129C9.6439 4.53299 9.0608 5.68589 8.7528 5.93369C8.4441 6.18919 7.4494 6.66729 6.9608 6.70159C6.4638 6.73589 5.8121 6.77019 5.4432 6.67569C5.075 6.59029 3.8486 5.92459 3.7121 5.60889C3.5658 5.29389 3.3691 4.87529 3.36 4.26069C3.3516 3.73989 3.5315 2.86069 3.6687 2.58769V2.57929ZM11.1447 13.052C11.1447 13.052 8.89 13.1115 8.7017 13.1031H5.2297C4.52672 13.0903 3.82357 13.0903 3.1206 13.1031C2.8119 13.1031 1.7143 13.1374 1.5512 13.0611C1.5771 12.8469 1.5169 12.275 1.5512 12.0706C1.757 10.9268 2.366 10.1666 2.5627 9.84249C2.8203 9.46729 3.2403 9.15999 3.5749 8.84429C3.9004 8.56219 4.6893 8.14429 4.998 8.01619C5.3151 7.88809 5.8205 7.79429 6.1292 7.77679C6.4211 7.75999 7.4662 7.81179 7.7924 7.87129C8.1613 7.93919 9.3527 8.19539 9.6012 8.34029C9.9869 8.59649 10.3299 8.88629 10.6554 9.21949C10.8185 9.39869 11.0754 9.61219 11.2042 9.80819C11.333 9.99649 11.4618 10.2863 11.5731 10.483C11.7187 10.7644 11.8643 11.0458 11.9931 11.3279C12.1051 11.5841 12.173 11.8914 12.2591 12.156C12.3277 12.3779 12.3956 12.7188 12.4558 12.9498C12.3102 12.9666 11.1356 13.0352 11.1356 13.0352L11.1447 13.052Z" fill="#504139"/>
</g>
<defs>
<clipPath id="clip0_97_918">
<rect width="14" height="14" fill="white"/>
</clipPath>
</defs>
</svg>
